<svg width="24" height="24" viewBox="0 0 24 24" fill="none" xmlns="http://www.w3.org/2000/svg"><title>dogecoin</title><g clip-path="url(#clip0_2302_43187)"><path d="M12 24C18.6274 24 24 18.6274 24 12C24 5.37258 18.6274 0 12 0C5.37258 0 0 5.37258 0 12C0 18.6274 5.37258 24 12 24Z" fill="#988430"></path><path d="M11.9999 23.6156C18.415 23.6156 23.6155 18.4151 23.6155 12C23.6155 5.58487 18.415 0.384384 11.9999 0.384384C5.58477 0.384384 0.384277 5.58487 0.384277 12C0.384277 18.4151 5.58477 23.6156 11.9999 23.6156Z" fill="#7A6A2A"></path><path d="M11.9998 23.3709C18.2798 23.3709 23.3707 18.28 23.3707 12C23.3707 5.72004 18.2798 0.62912 11.9998 0.62912C5.71982 0.62912 0.628906 5.72004 0.628906 12C0.628906 18.28 5.71982 23.3709 11.9998 23.3709Z" fill="#BA9F33"></path><path fill-rule="evenodd" clip-rule="evenodd" d="M5.24683 10.7185C5.17886 10.6564 5.10705 10.5942 5.041 10.5321C4.97496 10.47 4.90712 10.4078 4.83915 10.3457L4.63717 10.1537C4.60414 10.1207 4.5692 10.0916 4.53617 10.0585C4.50315 10.0294 4.46437 9.99641 4.43134 9.96723C4.16331 9.71289 3.89374 9.45856 3.62942 9.20409C3.90321 9.45459 4.17125 9.70329 4.44504 9.9575L4.54014 10.0527C4.57316 10.0856 4.60811 10.1148 4.64113 10.1478L4.84299 10.3342C4.91096 10.3963 4.97701 10.4585 5.04497 10.5262C5.11294 10.5939 5.17899 10.6563 5.24696 10.7182L5.24683 10.7185ZM1.68958 10.6801C1.68958 10.6801 2.6643 10.7809 3.14008 10.8489C3.58078 10.9111 4.95947 11.1227 4.95947 11.1227L1.68958 10.6801ZM1.68958 10.6801C1.96337 10.7034 2.23717 10.7324 2.51096 10.7616C2.65073 10.7752 2.78475 10.7907 2.91876 10.8042L3.12446 10.8276C3.19243 10.8372 3.25848 10.847 3.32644 10.8567L4.14206 10.9868L4.54974 11.0547C4.68376 11.078 4.81777 11.1034 4.95755 11.1267C4.82353 11.1131 4.68376 11.0936 4.54974 11.0742L4.14206 11.0159L3.32644 10.8956C3.25848 10.8859 3.19243 10.8722 3.12446 10.8626L2.91864 10.8389C2.78462 10.8253 2.64485 10.8059 2.51083 10.7903C2.23704 10.7574 1.96325 10.7223 1.68945 10.6797L1.68958 10.6801ZM4.86244 11.3766C4.86244 11.3766 3.82168 11.6408 3.47019 11.7418C3.12459 11.8369 2.07793 12.1554 2.07793 12.1554L4.86232 11.3768L4.86244 11.3766Z" fill="#CFB66C"></path><path fill-rule="evenodd" clip-rule="evenodd" d="M4.86203 11.3766C4.63099 11.4446 4.40123 11.5107 4.16686 11.5729L3.47169 11.7592C3.24065 11.8272 3.01089 11.8932 2.78049 11.9612L2.43489 12.0563C2.32033 12.0893 2.20385 12.1184 2.08545 12.1516C2.19988 12.1132 2.31649 12.0739 2.43105 12.0408L2.77665 11.9302C3.00769 11.8583 3.23745 11.7903 3.46785 11.7185C3.70273 11.6603 3.9339 11.5981 4.16878 11.5418C4.39201 11.4854 4.62702 11.4292 4.86203 11.3768V11.3766ZM2.22331 12.7962C2.33774 12.7534 3.65819 12.138 3.965 11.9942C4.1186 11.9223 4.56507 11.7638 4.56507 11.7638L2.22331 12.7962Z" fill="#CFB66C"></path><path fill-rule="evenodd" clip-rule="evenodd" d="M2.22327 12.7962C2.32414 12.7578 2.41937 12.7108 2.51639 12.6661L2.80375 12.5321L3.38052 12.2545C3.57252 12.1632 3.75914 12.0625 3.95716 11.9767C4.05815 11.9341 4.15914 11.8991 4.26001 11.8661L4.41361 11.8176C4.46596 11.804 4.5146 11.7884 4.56721 11.7748C4.37521 11.8661 4.1731 11.9438 3.98084 12.033C3.78884 12.1283 3.59249 12.206 3.39434 12.2913L2.80798 12.5495C2.61111 12.6292 2.41911 12.7146 2.22314 12.7962H2.22327ZM2.35127 13.3338C2.35127 13.3338 3.5473 12.6328 3.95895 12.4076C4.1745 12.2872 4.87159 11.9415 4.87159 11.9415L2.35127 13.3338Z" fill="#CFB66C"></path><path fill-rule="evenodd" clip-rule="evenodd" d="M2.35156 13.334C2.55342 13.2097 2.75924 13.0835 2.96507 12.9554L3.27227 12.7689C3.3771 12.7068 3.47809 12.6486 3.58497 12.5865C3.6898 12.5243 3.79079 12.4622 3.89755 12.404C3.94837 12.3726 4.00161 12.3453 4.05678 12.3224L4.21985 12.2409C4.4354 12.1361 4.65095 12.0292 4.87815 11.9379C4.67233 12.0681 4.46062 12.1788 4.24903 12.2932C4.1442 12.3515 4.03732 12.404 3.93249 12.4622C3.82766 12.5204 3.72667 12.5827 3.61979 12.639C3.51495 12.7011 3.41396 12.7593 3.30721 12.8156L2.99067 12.9884L2.35182 13.334H2.35156ZM4.86215 12.0951C4.86215 12.0951 4.11847 12.666 3.87771 12.8485C3.63694 13.031 2.9282 13.5437 2.9282 13.5437L4.86215 12.0951Z" fill="#CFB66C"></path><path fill-rule="evenodd" clip-rule="evenodd" d="M9.13006 16.699L8.74951 15.9786L8.97082 15.0776L10.5494 14.468L9.87758 13.0894L10.2096 11.6972L10.833 10.4504L12.7592 10.1476L14.1747 8.79808L17.231 9.02912L17.831 12.2971L16.6757 16.4116L16.0175 18.5418L13.3494 18.6428L12.1107 17.7846L10.6602 17.1786L9.13006 16.699Z" fill="#E2CC85"></path><path fill-rule="evenodd" clip-rule="evenodd" d="M13.81 16.6757C13.81 16.6757 13.441 16.8447 12.8116 16.8058C12.6295 16.5612 11.3538 16.4466 11.3538 16.4466C11.3538 16.4466 11.1946 16.3981 10.913 16.5146C10.6296 16.6298 10.3616 16.6156 10.1111 16.6776C9.86056 16.7397 9.61186 16.4136 9.41986 16.3456C9.22786 16.2738 8.97327 16.101 8.97327 16.101L8.43567 16.0485L7.35611 15.5922L5.64104 13.8835L5.17499 14.6131L5.03125 15.516L5.54978 16.586L6.94587 17.8578L9.66818 18.549L11.2817 18.0736L13.3031 17.2192L13.81 16.6756V16.6757Z" fill="#F1D789"></path><path fill-rule="evenodd" clip-rule="evenodd" d="M4.13767 10.6369L4.48327 9.5904L4.89505 8.91456L6.22113 8.80384L5.82305 9.96506L4.71444 11.9379L5.1746 13.6991L4.35911 14.1068L4.10849 13.7224L3.90663 12.8408L3.89307 11.8505L4.13767 10.6369Z" fill="#F4ECB4"></path><path fill-rule="evenodd" clip-rule="evenodd" d="M5.62513 16.6039L5.37079 16.2486C5.37079 16.2486 5.30282 16.0796 5.34174 15.932C5.38014 15.7825 5.37463 15.7728 5.3553 15.7165C5.33598 15.6602 5.17278 15.466 5.1825 15.2989C5.1921 15.13 5.16894 15.0737 5.2931 14.9398C5.42314 14.8097 5.38436 14.5844 5.38436 14.5844L5.55332 14.6893L5.59172 14.631C5.59172 14.631 5.6538 14.6796 5.6538 14.7553C5.66737 14.6505 5.61105 14.165 5.73918 14.0544C5.8673 13.9438 6.0945 14.5728 6.0945 14.5728L5.95473 13.6602L5.59543 12.7244L4.95658 11.87L4.91818 10.9281V10.8466C4.91818 10.8466 4.62494 11.2972 4.5434 11.653C4.48516 11.8976 4.62494 12.1947 4.59588 12.5462C4.57246 12.8957 4.5434 12.8685 4.62878 13.007C4.71415 13.1455 4.92202 13.4303 4.84049 13.6361C4.76868 13.8129 4.52394 13.6886 4.52394 13.6886C4.52394 13.6886 4.47543 13.8322 4.40938 13.8847C4.38609 13.7993 4.36087 13.7449 4.31428 13.6927C4.31031 13.7257 4.30071 13.7704 4.30071 13.7704C4.30071 13.7704 4.25796 13.6364 4.21521 13.4674C4.1571 13.2422 4.09489 12.9452 4.03857 12.7859C4.01527 12.8772 3.95703 13.1548 3.95703 13.1548L3.99006 13.5821L4.14929 14.1684L4.30289 14.5524L4.45239 15.0223L4.58231 15.338L4.68714 15.5788L4.77841 16.1206L5.21911 16.5865L5.45412 16.6915L5.62487 16.604L5.62513 16.6039Z" fill="#F3E19D"></path><path fill-rule="evenodd" clip-rule="evenodd" d="M4.36876 9.78253C4.36876 9.78253 4.05222 10.3201 3.96108 10.8621C3.86995 11.404 3.78828 11.9767 3.84588 12.7145C3.90412 13.4583 4.01484 13.9145 4.10419 14.2408C4.25779 14.7826 4.65561 15.536 4.65561 15.536L4.66918 15.5068C4.60231 15.3801 4.54894 15.2466 4.50995 15.1087C4.45747 14.9029 4.43801 14.6583 4.3895 14.5476C4.34675 14.437 4.27494 14.3418 4.24 14.2058C4.20697 14.0758 4.2016 13.87 4.10022 13.7166C4.05747 13.6544 4.00499 13.4913 3.9895 13.3283C3.97004 13.0835 3.99923 12.8097 3.97593 12.5846C3.93318 12.2098 3.90412 11.9555 3.94291 11.7592C3.98169 11.563 4.1838 11.006 4.30809 10.5632C4.38963 10.2797 4.34099 10.0408 4.49049 9.79417C4.64 9.54957 4.73139 9.33401 4.76428 9.18451C4.80268 9.04857 4.36825 9.78253 4.36825 9.78253H4.36876Z" fill="#F2E8B0"></path><path fill-rule="evenodd" clip-rule="evenodd" d="M5.86996 9.56697C5.86996 9.56697 5.70689 9.61562 5.6292 9.70099C5.5515 9.78253 5.51848 9.8505 5.41364 9.98835C5.30881 10.1262 5.30292 10.2388 5.21742 10.4116C5.13204 10.5806 4.94363 10.8349 4.92033 10.9262C4.89704 11.0175 4.85825 11.4446 4.80974 11.6466C4.76699 11.8486 4.85825 12.0972 4.85825 12.0972L4.96884 12.0737C4.96884 12.0737 4.96884 12.2175 5.07956 12.3146C5.19016 12.4097 5.20961 11.9922 5.20961 11.9922L5.62318 10.5961L6.24641 10.1728L6.31438 9.83104L5.86971 9.56697H5.86996Z" fill="#F5EEC0"></path><path fill-rule="evenodd" clip-rule="evenodd" d="M6.17265 10.2001C6.17265 10.2001 5.87941 10.2194 5.73579 10.3244C5.67755 10.367 5.65425 10.4019 5.59217 10.4544C5.47761 10.5495 5.36101 10.6369 5.30481 10.7616C5.24261 10.8858 5.17464 11.0742 5.12805 11.4295C5.10859 11.579 5.10859 11.7169 5.09502 11.8373C5.07557 12.0004 5.04651 12.1304 5.062 12.2213C5.08145 12.4077 5.27371 12.5048 5.2924 12.7164L5.69048 12.5146L6.06526 11.0368L6.86142 10.5376L6.41086 10.0328L6.17214 10.1992L6.17265 10.2001Z" fill="#E6DB9D"></path><path fill-rule="evenodd" clip-rule="evenodd" d="M4.07288 20.1509C4.07455 20.1363 4.07621 20.1217 4.07787 20.1068C4.13599 19.6076 4.14584 19.2292 4.18847 18.9923C4.25055 18.6564 4.2933 18.5315 4.28357 18.4058C4.27 18.2039 4.25451 18.0563 4.27397 17.9009C4.30303 17.6951 4.50501 17.4505 4.49925 17.2815C4.49528 17.1475 4.42731 17.0602 4.36907 16.9787C4.31083 16.8972 4.26424 16.8292 4.26424 16.8292C4.26424 16.8292 4.66232 16.5554 4.65848 15.4524C4.66661 15.4547 4.67443 15.458 4.68178 15.4621L4.87787 16.0193L5.01189 16.1824L5.52645 17.1416L6.18859 17.7844L7.16715 18.4426L7.78079 19.1104L7.84287 20.891L7.04095 21.9318L6.90962 22.1696C5.86625 21.6458 4.90949 20.9649 4.07275 20.1508L4.07288 20.1509Z" fill="#E5CB7A"></path><path fill-rule="evenodd" clip-rule="evenodd" d="M6.52246 21.8543C6.52246 21.8543 6.53603 21.633 6.71856 21.4893C6.74774 21.5378 6.76707 21.5845 6.76131 21.6193C6.79433 21.5612 7.02537 21.1884 7.54774 21.0912C8.07011 20.9961 8.19632 20.6156 8.19632 20.6156L9.30492 19.6078L10.5729 18.4408L12.1147 17.899L12.8352 17.7222C12.8352 17.7222 12.8487 17.7747 12.8216 17.8912C12.9555 17.8816 13.2526 17.8136 13.5613 17.7048C13.6856 17.6563 13.8022 17.6369 13.8643 17.701C13.9555 17.7864 13.9691 17.9884 13.9749 18.1087C14.1244 18.0757 14.2972 17.932 14.4357 17.9456C14.6571 17.9689 14.8532 18.2291 15.0785 18.2291C15.3756 18.2291 15.5095 18.0466 15.7173 17.9029C15.8416 17.8175 16.0202 17.7109 16.1212 17.6388C16.3619 17.462 18.9095 16.6834 18.9095 16.6834L19.8027 16.7416L19.9465 17.7009L19.8697 20.2084C19.8602 20.2175 19.8507 20.2269 19.8411 20.236L15.7799 22.3571L10.1505 23.2201C8.88948 23.0141 7.67258 22.5955 6.55164 21.9822L6.52284 21.8542L6.52246 21.8543Z" fill="#D8C173"></path><path fill-rule="evenodd" clip-rule="evenodd" d="M4.41406 20.4699C4.49406 20.3026 4.566 20.1627 4.57867 20.1126C4.58865 20.2135 4.60696 20.4348 4.64382 20.6701C4.56642 20.6043 4.48984 20.5375 4.41406 20.4698V20.4699Z" fill="#F1D789"></path><path fill-rule="evenodd" clip-rule="evenodd" d="M8.52629 22.8297L9.25435 22.6272L9.31643 22.6467C9.31643 22.6467 9.34945 22.6661 9.34945 22.732C9.44072 22.6797 9.51842 22.6893 9.57474 22.6545C9.60379 22.7165 9.63285 22.9224 9.7611 22.9476C9.89499 22.9768 10.0387 22.8893 10.1844 22.7788C10.328 22.6642 10.4916 22.5205 10.6154 22.4622C10.6608 22.5457 10.701 22.6319 10.7358 22.7204C10.8989 22.5903 11.1824 22.0622 11.5863 22.0718C11.703 21.796 11.898 21.5604 12.1472 21.3942C12.5219 21.1398 12.7568 21.1204 13.0501 21.1437C13.1665 20.9924 13.3101 20.864 13.4734 20.7651C13.5219 20.7845 13.6559 20.8661 13.8229 20.7884C13.9919 20.7108 14.1821 20.4097 14.4326 20.3709C14.5676 20.3524 14.7048 20.3812 14.8209 20.4525C14.8209 20.4525 15.5505 19.7281 16.054 19.4874C16.0345 19.4291 15.9957 19.2097 16.5859 18.7242C16.619 18.7534 16.5957 18.8349 16.619 18.8394C16.6286 18.8394 16.7726 18.7773 16.9548 18.6374C17.1801 18.4686 17.4499 18.2918 17.613 18.2433C17.9202 18.1521 18.2461 18.3384 18.2461 18.3384C18.2738 18.319 18.3047 18.3045 18.3374 18.2957C18.4149 18.2821 18.4712 18.2724 18.514 18.2573C18.5102 18.3583 18.5665 18.5311 18.514 18.6806C18.5748 18.7148 18.6392 18.7421 18.706 18.7621C18.6731 18.8339 18.6012 19.0165 18.4808 19.1039C18.5817 19.1524 18.5953 19.2087 18.739 19.2575C18.6808 19.339 18.5854 19.4789 18.5429 19.5647C18.5002 19.6559 18.3467 20.0346 18.2787 20.1782C18.2069 20.3219 18.1099 20.586 18.0632 20.639C18.0165 20.692 17.8476 20.9166 17.7176 21.0272C17.8328 20.9845 18.3041 20.8408 18.504 20.7864C18.4445 20.8737 18.1428 21.3213 17.8528 21.7518C16.464 22.5842 14.9138 23.111 13.3055 23.2972C11.6971 23.4834 10.0676 23.3247 8.52539 22.8316L8.52629 22.8297Z" fill="#E0CD81"></path><path fill-rule="evenodd" clip-rule="evenodd" d="M6.22062 10.1476C6.22062 10.1476 6.05178 10.1476 6.01876 10.1709C5.98574 10.1942 6.18772 10.2428 6.2498 10.2661C6.31188 10.2894 6.4459 10.3962 6.48084 10.4817C6.51386 10.5632 7.69441 11.0388 7.69441 11.0388L8.52935 10.9961L8.81722 10.5984L8.26964 10.1188L8.65364 8.98675L8.14497 9.06829L6.92167 9.79789L6.30804 10.0329L6.22062 10.1476Z" fill="#DFC57C"></path><path fill-rule="evenodd" clip-rule="evenodd" d="M8.05432 10.5224C8.06639 10.5419 8.08339 10.5579 8.10361 10.5688C8.12383 10.5797 8.14656 10.5851 8.16952 10.5844C8.34232 10.5844 8.50142 10.6272 8.56747 10.7145C8.67819 10.8544 8.98501 11.301 8.98501 11.301L9.71896 11.5651L9.76632 10.7008L8.9644 10.1436L8.05176 10.4795V10.5222H8.05381L8.05432 10.5224Z" fill="#E5CC7C"></path><path fill-rule="evenodd" clip-rule="evenodd" d="M7.91061 10.8428C7.91061 10.8428 8.04449 10.8525 8.21345 10.7903C8.38241 10.7281 8.66005 10.5942 8.78049 10.6467C8.94933 10.7185 8.91438 10.9437 9.09704 11.1459C9.20763 11.2701 9.40961 11.2663 9.52417 11.4003C9.63873 11.5343 10.0328 11.4721 10.0328 11.4721L10.1823 12.2785L9.58241 13.0476L9.38619 14.0028H8.57493L7.83381 13.7088L7.46875 12.8256L7.65128 11.9324L7.91061 10.8428Z" fill="#D2C281"></path><path fill-rule="evenodd" clip-rule="evenodd" d="M9.47974 10.8815C9.49986 10.8877 9.52077 10.891 9.54182 10.8913C9.51853 10.9107 9.46989 10.9533 9.48934 11.0641C9.5088 11.1748 9.57088 11.3146 9.51853 11.3999C9.56032 11.4456 9.59149 11.5 9.60979 11.5592C9.64282 11.6544 9.65254 11.7417 9.86797 11.7554C9.83688 11.7745 9.80821 11.7973 9.78259 11.8234C9.78259 11.8234 9.9321 11.9534 10.0079 12.0737C10.0854 12.0704 10.2913 12.0064 10.2913 12.0064L10.334 12.0356L10.4253 11.9972C10.4253 11.9972 10.3399 11.9642 10.402 11.7564C10.4602 11.5739 10.5127 11.5836 10.5172 11.57C10.5217 11.5565 10.5599 11.3642 10.5599 11.2865C10.589 11.1857 10.6123 10.8788 10.6123 10.8788L10.5502 10.2012L10.2008 9.9895L9.91661 9.7152L9.64858 10.22L9.47206 10.396L9.4585 10.8329L9.47974 10.8815Z" fill="#E2C270"></path><path fill-rule="evenodd" clip-rule="evenodd" d="M10.3203 10.3146C10.3203 10.3146 10.3824 10.4913 10.4058 10.6272C10.4141 10.6008 10.4186 10.5733 10.4194 10.5457C10.4194 10.5457 10.4679 10.8137 10.4775 10.9244C10.497 10.9204 10.5159 10.9147 10.5202 10.934C10.5246 10.9533 10.5689 11.169 10.5586 11.2893C10.6395 11.1559 10.7514 11.0441 10.8848 10.9632C10.9625 10.9146 11.0538 10.8622 11.149 10.8582C11.2985 10.8544 11.4072 10.9535 11.5858 10.9535C12.0168 10.9535 12.4072 10.6369 12.6946 10.5399C12.9062 10.468 13.0887 10.4156 13.2168 10.299C13.279 10.2467 13.3898 10.1302 13.4906 9.95725C13.6246 9.72685 13.7644 9.52627 13.9043 9.50106C13.841 9.51269 13.7766 9.51724 13.7123 9.51462C13.7123 9.51462 13.7551 9.47187 13.8275 9.41363C13.9 9.35539 13.9867 9.28358 14.1109 9.28358C14.3323 9.28358 14.4429 9.31648 14.5672 9.31648C14.6915 9.31264 14.7633 9.28358 14.7633 9.28358C14.7633 9.28358 14.8935 9.37485 15.1866 9.37485C15.4799 9.37869 15.676 9.4039 15.8294 9.4176C15.9829 9.4313 16.4973 9.37485 16.6449 9.3792C16.7411 9.38291 16.8356 9.40603 16.9227 9.44717L16.4469 8.06477L14.7378 6.57101L13.7204 7.29139L12.1552 8.85645L10.6407 9.4176L10.3242 9.77293V10.3146H10.3203Z" fill="#CCB360"></path><path fill-rule="evenodd" clip-rule="evenodd" d="M13.7185 9.5223C13.7185 9.5223 13.7613 9.47968 13.8329 9.42144C13.9046 9.3632 13.9923 9.29126 14.1165 9.29126C14.3378 9.29126 14.4485 9.32429 14.5728 9.32429C14.6971 9.32045 14.7689 9.29126 14.7689 9.29126C14.7689 9.29126 14.8992 9.3824 15.1922 9.3824C15.4854 9.38624 15.6815 9.41146 15.835 9.42502C15.9885 9.43859 16.5029 9.3824 16.6505 9.38662C16.7467 9.39025 16.8411 9.41337 16.9281 9.45459L16.7126 8.83123L16.4622 8.35558L15.7476 7.57299C15.7476 7.57299 14.89 7.06816 14.8834 7.06432C14.8796 7.06048 14.5863 6.98278 14.5863 6.98278L13.8096 7.45267L13.1049 9.27603L13.0913 9.66003L13.5475 9.87558C13.6621 9.68358 13.7884 9.52998 13.9068 9.51053C13.7999 9.52218 13.7184 9.52218 13.7184 9.52218L13.7185 9.5223Z" fill="#D5B457"></path><path fill-rule="evenodd" clip-rule="evenodd" d="M13.709 9.65248C13.641 9.65632 13.5848 9.64275 13.5692 9.59424C13.5109 9.43117 13.4644 9.40787 13.4156 9.40787C13.3668 9.40787 13.301 9.51271 13.262 9.52231C13.2229 9.53191 13.1766 9.40199 13.1766 9.40199L13.1339 9.38253C13.1339 9.38253 12.8834 9.5456 12.7067 9.73786C12.5301 9.93011 12.2407 10.2564 12.1106 10.3145C11.9806 10.3726 11.5339 10.3922 11.381 10.4252C11.2282 10.4582 11.0587 10.569 11.0354 10.5942C11.0121 10.6194 11.1035 10.6465 11.1171 10.6717C11.1307 10.695 10.9675 10.6853 10.9539 10.7101C10.9443 10.7296 10.9923 10.8402 11.0161 10.8965C11.0578 10.8758 11.1035 10.8645 11.15 10.8635C11.2995 10.8597 11.4083 10.9587 11.5868 10.9587C12.018 10.9587 12.4082 10.6422 12.6956 10.545C12.9073 10.4732 13.0898 10.4207 13.218 10.3043C13.28 10.2519 13.3908 10.1353 13.4917 9.9625C13.5655 9.8441 13.6374 9.73338 13.7093 9.65184L13.709 9.65248Z" fill="#D2B257"></path><path fill-rule="evenodd" clip-rule="evenodd" d="M7.52653 19.2622C7.52653 19.2622 7.48813 19.1185 7.13229 18.7476C7.03129 18.6428 6.96921 18.5556 6.90125 18.4933C6.73229 18.334 6.63321 18.2913 6.51289 18.2001C6.24883 18.004 5.96147 18.004 5.74016 17.7632C5.51885 17.5224 5.26093 17.0624 5.08173 16.5923C4.90509 16.1224 4.85645 15.9729 4.85645 15.9593C4.85645 15.9457 4.90509 15.8545 4.96717 15.868C5.02925 15.8816 5.02925 16.0019 5.04486 16.0311C5.07579 16.0787 5.11087 16.1235 5.14969 16.165C5.24096 16.27 5.37101 16.3954 5.43705 16.5825C5.42349 16.4233 5.36909 16.2467 5.36909 16.2467C5.36909 16.2467 5.71085 16.4622 6.00205 16.6874C6.29529 16.9126 6.41561 16.9903 6.50125 17.134C6.58688 17.2776 6.78861 17.6563 6.88525 17.767C6.98189 17.8778 8.30605 18.2952 8.30605 18.2952L8.93593 18.7648L9.24864 19.4502L9.0039 19.8342L8.53401 19.9352L7.77088 19.5935L7.52653 19.2621V19.2622Z" fill="#D2B159"></path><path fill-rule="evenodd" clip-rule="evenodd" d="M5.83105 16.901C5.83105 16.901 5.99029 17.1553 6.37864 17.3961C6.72821 17.6078 7.28155 17.8001 7.77486 17.9146C8.05825 17.9826 8.34177 18.0349 8.59611 18.0389C9.28155 18.0485 9.75336 17.8525 10.3379 17.7884C10.6545 17.7554 11.0428 17.7302 11.4467 17.6348C11.9651 17.5105 12.2719 17.3706 12.6894 17.174C12.9923 17.0342 13.27 16.9294 13.4952 16.7954C13.8117 16.609 14.0428 16.4013 14.3108 16.3392C14.2778 16.4305 14.2428 16.5935 13.9788 16.7625C14.1185 16.7585 14.3108 16.7489 14.3108 16.7489C14.3108 16.7489 14.1244 16.8595 13.7962 17.1081C13.5943 17.2617 13.3263 17.5217 13.0526 17.6945C12.8758 17.8052 12.6835 17.8865 12.5573 17.9528C12.2501 18.1217 12.1262 18.2071 11.9244 18.4136C11.9962 18.4097 12.0021 18.4136 12.0021 18.4136C12.0021 18.4136 11.7476 18.4466 11.5652 18.5436C11.5268 18.5436 11.4602 18.5301 11.3438 18.5631C11.2525 18.5921 11.132 18.6583 11.0079 18.6931C10.8311 18.7456 10.773 18.7223 10.773 18.7223L10.8021 18.7805C10.8021 18.7805 10.5717 18.7766 10.4949 18.7844C10.5084 18.7882 10.5046 18.7941 10.5046 18.7941C10.4911 18.7964 10.4781 18.801 10.4662 18.8077C10.4292 18.8316 10.3886 18.8493 10.3459 18.86C10.3226 18.8639 10.3031 18.8639 10.2739 18.8698C10.2837 18.8931 10.3594 19.0234 10.3944 19.1002C10.3653 19.1196 9.92833 19.4497 9.92833 19.4497C9.94189 19.4711 9.95297 19.4939 9.96136 19.5177C9.97493 19.5603 9.98081 19.6225 9.99438 19.6516C10.0273 19.7098 10.0467 19.7196 10.0467 19.7196C10.0467 19.7196 9.99438 19.7293 9.90299 19.7526C9.82542 19.772 9.73019 19.8049 9.59579 19.8244C9.55455 19.8298 9.51307 19.833 9.4715 19.8341C9.49096 19.8769 9.57633 20.0399 9.41902 20.2282C9.26171 20.4165 9.2132 20.4439 9.16469 20.5642C9.14027 20.5458 9.11427 20.5295 9.08699 20.5156C9.03464 20.4923 8.9627 20.4575 8.93749 20.4108C8.92279 20.473 8.90332 20.534 8.87925 20.5933C8.83073 20.7233 8.75893 20.8516 8.74536 20.9486C8.69288 20.8904 8.59585 20.7758 8.46184 20.7991C8.32782 20.8224 8.22107 21.0049 8.19777 21.0574C8.19777 21.0244 8.17448 20.9992 8.16872 21.038C8.16475 21.0807 8.09102 21.5272 7.67937 21.8884C7.67553 21.7971 7.67553 21.5951 7.66581 21.5292C7.62741 21.5676 7.58043 21.6243 7.30075 21.7448C7.02696 21.8651 7.07035 21.9855 7.07035 21.9855C7.07035 21.9855 7.04706 21.7935 7.19464 21.5913C7.34414 21.3894 7.43541 21.2942 7.43541 21.2787C7.43299 21.2629 7.42626 21.2482 7.41595 21.236C7.39649 21.2165 7.35771 21.1932 7.35771 21.1777C7.38101 21.1681 7.61205 21.0574 7.59848 20.8282C7.58491 20.6225 7.49761 20.5156 7.43541 20.4399C7.42581 20.4302 7.5268 20.3584 7.5131 20.3351C7.50337 20.3215 7.37922 20.2301 7.3636 20.1815C7.36727 20.1525 7.37379 20.1239 7.38305 20.0961C7.39662 20.0534 7.40635 20.0242 7.40251 19.9951C7.39278 19.9466 7.3403 19.8126 7.32481 19.799C7.33838 19.8029 7.43541 19.799 7.43541 19.799C7.43541 19.799 7.35784 19.6748 7.34414 19.6165C7.33045 19.5583 7.30139 19.4048 7.2859 19.3757C7.31893 19.3796 7.40046 19.3853 7.40046 19.3757C7.40443 19.3466 7.32865 19.2981 7.36206 19.2605C7.38536 19.2644 7.43003 19.2838 7.47265 19.3382C7.44936 19.276 7.41057 19.1557 7.32891 19.1072C7.36731 19.0936 7.49787 19.0586 7.61243 19.1265C7.72699 19.1945 7.76603 19.2896 7.76603 19.2896C7.76603 19.2896 7.834 19.3421 7.93896 19.4198C8.05928 19.5149 8.21262 19.6502 8.45736 19.7459C8.50984 19.7751 8.64373 19.7751 8.74088 19.7557C8.78318 19.7456 8.82374 19.7292 8.8612 19.7071C8.87473 19.6992 8.88906 19.6926 8.90395 19.6877C8.88308 19.6458 8.85907 19.6055 8.83214 19.5672C8.86517 19.5672 8.90395 19.5712 8.90395 19.5712C8.90395 19.5712 8.92725 19.5187 8.82241 19.4176C8.84571 19.3943 8.87489 19.3792 8.87489 19.3399C8.84187 19.3361 8.78363 19.2876 8.77006 19.2681C8.78939 19.2545 8.81857 19.2099 8.8516 19.1963C8.82241 19.173 8.75061 19.0758 8.71758 19.0662C8.74913 19.0545 8.77966 19.0402 8.80885 19.0235C8.80885 19.0235 8.64577 18.9807 8.59329 18.9458C8.54081 18.9074 8.46325 18.841 8.41665 18.8215C8.36801 18.8021 8.28264 18.7925 8.24769 18.7535C8.28059 18.7633 8.33307 18.7535 8.37198 18.7535C8.40104 18.7535 8.41473 18.7574 8.42434 18.7574C8.42049 18.7438 8.42049 18.7146 8.49627 18.705C8.53272 18.6995 8.56809 18.6884 8.6011 18.672C8.6011 18.672 8.52917 18.6682 8.4475 18.5905C8.36584 18.5128 8.298 18.4507 8.25141 18.441C8.20289 18.4312 8.11163 18.474 8.05531 18.47C7.97761 18.4604 7.94459 18.4215 7.94459 18.4215C7.94459 18.4215 7.68641 18.4448 7.11361 18.0954C6.61838 17.7924 6.40283 17.5245 6.40283 17.5245C6.35648 17.5077 6.31169 17.4868 6.26894 17.4623C6.08257 17.3653 5.82427 17.1633 5.83208 16.8991L5.83105 16.901Z" fill="#C2A44D"></path><path fill-rule="evenodd" clip-rule="evenodd" d="M12.9747 5.24659C13.0197 5.26118 13.0596 5.28811 13.0899 5.32429C13.1812 5.42912 13.2394 5.62714 13.0317 5.83885C13.1132 5.8679 13.1469 5.87725 13.2181 5.8679C13.1463 5.95341 12.9832 6.13594 12.9735 6.29517C12.9637 6.42522 13.0453 6.46413 13.0453 6.46413C13.0453 6.46413 12.921 6.60774 12.9152 6.84813C12.9739 6.78194 13.0381 6.72087 13.1072 6.6656C13.251 6.55104 13.449 6.42099 13.583 6.33946C13.5812 6.37363 13.5858 6.40784 13.5966 6.44032C13.5966 6.44032 13.8469 6.2345 14.0574 6.32589C14.1525 6.36864 14.1097 6.50253 14.1097 6.50253C14.1097 6.50253 14.2399 6.45402 14.3312 6.54528C14.4224 6.63654 14.5514 6.87194 14.6176 6.9632C14.6467 7.00595 14.7225 7.08749 14.8 7.2137C14.906 7.39039 14.9945 7.577 15.0642 7.77088C15.0681 7.66989 15.0933 7.5127 15.3808 7.61165C15.6681 7.71264 15.9943 7.92435 16.2681 8.34125C16.5418 8.75814 16.6097 9.2288 16.7475 9.408C16.8873 9.5808 17.0311 9.86816 17.0408 9.98861C17.0505 10.1091 16.998 10.4973 17.2854 11.5478C17.3669 11.2216 17.4912 10.4973 17.4912 10.4973L17.5592 9.85843L17.6369 7.88173L15.5728 6.16691L13.9592 4.99597L12.9087 5.09696L12.9746 5.24646L12.9747 5.24659Z" fill="#CAA13E"></path><path fill-rule="evenodd" clip-rule="evenodd" d="M16.8095 8.18829C16.8095 8.18829 16.7804 7.99629 16.295 7.66989C15.8095 7.34758 15.4309 7.34758 15.0814 7.07379C14.8134 6.85824 14.5338 6.36301 14.3518 6.19994C14.1751 6.03878 14.146 5.57274 14.146 5.57274L14.7421 5.07354L15.6286 3.79213L16.3781 2.96691L16.7372 3.46611L17.2364 4.05248L17.5141 5.22918L17.6151 6.95155L16.8087 8.18842L16.8095 8.18829Z" fill="#B59544"></path><path fill-rule="evenodd" clip-rule="evenodd" d="M17.41 10.2528C17.4247 9.9916 17.3925 9.72988 17.3148 9.48006C17.1868 9.08198 16.9071 8.37517 16.7772 8.11046C16.7247 7.81722 16.7636 7.79392 16.82 7.7609C16.8763 7.72787 17.088 7.6073 17.204 7.18426C17.3199 6.76122 17.6797 6.74739 17.6797 6.74739L17.901 6.58432L18.237 7.42502L18.5302 8.18432L18.6214 8.76493L18.6894 9.26003L18.5302 10.3067L17.7439 11.0173L17.4099 10.2528H17.41Z" fill="#C89D3A"></path><path fill-rule="evenodd" clip-rule="evenodd" d="M6.43701 21.9186V21.8971C6.45335 21.8869 6.46778 21.8739 6.47964 21.8587C6.4932 21.8392 6.50306 21.8159 6.51266 21.8102C6.53212 21.8004 6.62338 21.7718 6.67189 21.781C6.7204 21.7902 6.84866 21.8431 6.91663 21.8392C7.0564 21.8354 7.21948 21.7285 7.47778 21.7772C7.86613 21.849 7.9574 22.113 8.18268 22.2625C8.33628 22.3675 8.49525 22.3208 8.51855 22.3208H8.5709C8.58063 22.3208 8.65244 22.2392 8.69135 22.2432C8.76904 22.247 8.77672 22.3112 8.82524 22.315C8.9398 22.3286 9.16124 22.2568 9.27196 22.286C9.30479 22.2962 9.33464 22.3143 9.35898 22.3386C9.38332 22.3629 9.40142 22.3928 9.41173 22.4256C9.43503 22.4974 9.41557 22.5887 9.35925 22.6412C9.23893 22.7517 9.12437 22.8567 9.10108 22.9484C9.13071 22.9709 9.15916 22.995 9.18632 23.0205C8.22558 22.7758 7.30121 22.4057 6.43701 21.9197V21.9186Z" fill="#CEB052"></path><path fill-rule="evenodd" clip-rule="evenodd" d="M16.7769 18.0389C16.7769 18.0389 17.0797 17.6351 17.1847 17.435C17.2895 17.2288 16.8526 14.6176 16.8526 14.6176L17.7303 11.742L17.7069 10.806C17.7069 10.806 17.7497 9.94189 17.8506 9.5671C17.9711 9.78265 18.3459 10.0429 18.4274 10.1807C18.4658 9.91654 18.5962 9.35936 18.5769 8.76518C18.6487 8.87577 18.8215 9.98848 18.8215 9.98848L18.9943 10.7379L19.2196 11.5341L19.4701 12.3749L19.6196 12.9555L19.705 13.0953L19.7769 13.3399L19.8449 13.6041L20.041 14.2235L20.1562 14.7322L20.2474 15.6545C20.2673 15.7252 20.2816 15.7972 20.2902 15.8701C20.294 15.9711 20.2766 16.0293 20.2766 16.0468C20.2766 16.0644 20.3097 16.2682 20.2961 16.4216C20.2766 16.5752 20.2766 16.6954 20.1562 16.8056C20.0357 16.9158 19.9601 17.5745 19.9601 17.5745L19.7445 17.4309C19.7445 17.4309 19.7873 17.2347 19.6863 17.0561C19.5853 16.8776 19.3892 16.8406 19.2785 16.8698C19.1679 16.8931 18.9466 16.9279 18.8746 16.9901C18.8067 17.0522 18.6398 17.2444 18.4863 17.3318C18.2943 17.447 17.9815 17.4561 17.8146 17.4949C17.6456 17.5333 17.4592 17.6485 17.263 17.7823C17.1091 17.8819 16.9467 17.9676 16.7776 18.0383L16.7769 18.0389Z" fill="#CCA847"></path><path fill-rule="evenodd" clip-rule="evenodd" d="M16.7769 22.2816C16.7769 22.2816 16.7897 22.2899 16.8144 22.3035C18.1939 21.6572 19.4299 20.741 20.4496 19.6091C20.4384 19.2161 20.424 18.8133 20.4081 18.6641C20.3752 18.3475 20.3985 18.0252 20.3888 17.8388C20.379 17.6525 20.2742 16.8932 20.2257 16.6971C20.1732 16.501 20.0721 16.4038 20.0567 16.4038C20.0432 16.4078 19.9615 16.7729 19.9615 16.8646C19.9615 16.9564 19.942 17.1773 19.942 17.2337C19.9285 17.2297 19.9227 17.1953 19.9227 17.1812C19.9033 17.2297 19.88 17.3152 19.8702 17.3249C19.8605 17.3347 19.8838 17.2434 19.8702 17.2239C19.8567 17.2045 19.8318 17.2142 19.8372 17.1657C19.8395 17.1369 19.844 17.1084 19.8508 17.0803C19.8508 17.0803 19.7925 17.1657 19.7499 17.3832C19.7072 17.5987 19.7072 17.6046 19.6917 17.6239C19.6781 17.6474 19.6004 17.7249 19.5964 17.7541C19.5926 17.8065 19.6684 17.8589 19.6741 17.888C19.678 17.9366 19.6062 18.1618 19.5829 18.272C19.5596 18.3822 19.5693 18.5981 19.5445 18.7089C19.525 18.8099 19.5061 18.8681 19.4396 18.9107C19.4882 18.9204 19.5347 18.934 19.5347 18.934C19.5347 18.934 19.6027 19.2214 19.4299 19.4661C19.3678 19.5515 19.3523 19.5904 19.2863 19.6681C19.1561 19.8117 19.0551 19.9753 19.0454 20.0817C19.0387 20.0503 19.0341 20.0184 19.0318 19.9864C19.0318 19.9864 18.83 20.2214 18.7445 20.3555C18.6339 20.5283 18.4804 20.5185 18.4373 20.5613C18.3941 20.604 18.3848 20.6816 18.3989 20.7438C18.3605 20.7534 18.2883 20.7671 18.2396 20.9166C18.2163 20.9942 18.1581 21.0702 18.0668 21.1224C17.9756 21.1747 17.8649 21.1904 17.8085 21.204C17.857 21.2175 17.8765 21.2175 17.8998 21.233C17.8707 21.2815 17.7367 21.3573 17.5872 21.4545C17.4377 21.5457 17.3658 21.6796 17.3289 21.767C17.2905 21.8486 17.2338 21.9011 17.1426 21.9108C17.181 21.9341 17.2378 21.9883 17.2668 22.0059C17.2241 22.0156 17.1516 22.0156 17.0222 22.1263C16.8863 22.239 16.8397 22.272 16.7775 22.2817L16.7769 22.2816Z" fill="#C39D3C"></path><path fill-rule="evenodd" clip-rule="evenodd" d="M14.0749 23.1814C14.1492 23.1293 14.2297 23.0866 14.3146 23.0543C14.6174 22.934 14.9378 22.9107 15.064 22.8719C15.1845 22.8335 15.2796 22.7805 15.4291 22.7515C15.4251 22.7855 15.4218 22.8175 15.4182 22.8477C14.9775 22.9863 14.5286 23.0978 14.0742 23.1814H14.0749Z" fill="#D2BA6B"></path><path fill-rule="evenodd" clip-rule="evenodd" d="M19.6607 15.2156C19.6607 15.2156 19.5986 15.5515 19.4879 15.7632C19.3771 15.9749 19.2575 16.268 19.2575 16.268C19.2582 16.202 19.266 16.1362 19.2808 16.0718C19.141 16.1533 18.8011 16.3496 18.7048 16.4369C18.6135 16.5184 18.46 16.6621 18.4212 16.7301C18.5125 16.4622 18.6076 16.2214 18.6232 16.1107C18.4834 16.2117 17.8309 16.7496 17.4912 17.1049L16.4329 17.9612C16.3108 18.0271 16.185 18.086 16.0562 18.1376C15.8738 18.2152 15.6582 18.2812 15.499 18.3434C15.5418 18.2289 15.6096 18.1277 15.7048 18.0307C15.8058 17.9356 16.1087 17.6074 16.1553 17.4547C16.198 17.2955 16.2077 17.2004 16.1514 17.0664C16.0989 17.0799 15.9786 17.0858 15.8971 17.1091C15.8155 17.1324 15.7281 17.2197 15.7281 17.2197C15.7281 17.2197 15.7902 16.8644 15.9242 16.5285C15.8232 16.5324 15.6504 16.5614 15.6504 16.5614C15.6504 16.5614 15.8912 16.1576 16.3032 15.8761C16.177 15.903 16.0536 15.9413 15.9343 15.9905C15.6936 16.0915 15.4295 16.241 15.2334 16.3226C15.344 16.169 16.1207 15.0605 16.5829 14.0274C17.0437 12.9964 17.2159 12.7323 17.3169 12.1789C17.3692 11.9052 17.3553 11.5005 17.3692 11.1382C17.3828 10.7789 17.4274 10.4566 17.3984 10.241C17.5187 10.3905 17.9693 10.8119 17.9848 11.7537C17.9983 12.6954 17.5538 13.9674 17.0818 14.6527C17.197 14.6857 17.4955 14.7246 17.8022 14.1919C18.1089 13.6591 18.1052 13.5104 18.2159 13.289C18.2295 13.3997 18.2255 13.4385 18.2255 13.4385C18.2255 13.4385 18.6722 12.8968 18.8838 12.2152C18.9266 12.5084 19.0528 12.7667 18.8546 13.3046C18.678 13.79 18.447 13.9085 18.447 13.9085C18.447 13.9085 18.5615 13.889 18.7304 13.788C18.7595 13.8598 18.7538 13.9416 18.8023 13.9706C18.8508 13.9995 18.9169 14.0483 18.9266 14.0948C18.9789 14.0172 19.0605 13.9181 19.0858 13.8444C19.0664 13.998 19.0528 14.6696 19.1242 15.0113C19.2738 14.9978 19.4272 14.988 19.532 14.7181C19.4602 14.9823 19.4602 15.1414 19.5087 15.3667C19.5883 15.3124 19.6601 15.2152 19.6601 15.2152L19.6607 15.2156Z" fill="#C0993A"></path><path fill-rule="evenodd" clip-rule="evenodd" d="M14.6157 4.51264C14.6157 4.51264 14.4662 4.57472 14.2118 4.57472C13.9905 4.57472 14.0526 4.48935 13.707 4.48935C13.175 4.48935 11.3167 4.79655 10.9904 4.79219C10.7787 4.78835 11.7049 4.88346 11.7049 4.88346L14.072 4.91648L14.5477 4.87808L14.7245 4.5184L14.6157 4.51264Z" fill="#A88F33"></path><path fill-rule="evenodd" clip-rule="evenodd" d="M8.47745 9.13984C8.47745 9.13984 8.17448 9.37088 8.04635 9.54765C7.91822 9.72441 7.85025 9.84077 7.70459 9.98451C7.73878 9.98581 7.77295 9.98122 7.80558 9.97094C7.80558 9.97094 7.80558 10.0093 7.78229 10.0195C7.80242 10.0172 7.8228 10.0195 7.84193 10.0261C7.86107 10.0328 7.87847 10.0436 7.89288 10.0579C7.85013 10.0812 7.73365 10.1978 7.82491 10.3356C7.89288 10.4404 8.03662 10.45 8.03662 10.45C8.03662 10.45 8.0036 10.5453 8.14145 10.5356C8.43854 10.522 8.77057 10.3918 8.92392 10.4248C9.07752 10.4632 9.16481 10.4773 9.27349 10.6657C9.38869 10.8521 9.48904 10.8813 9.48904 10.8813C9.48904 10.8813 9.55701 10.7083 9.54152 10.4502C9.59725 10.311 9.62814 10.1631 9.63278 10.0133L9.53179 9.26963L9.09109 8.71232L8.52021 9.02886L8.47745 9.13945V9.13984Z" fill="#E3C571"></path><path fill-rule="evenodd" clip-rule="evenodd" d="M9.01953 9.02912C9.01953 9.02912 9.06228 9.13011 9.24097 9.13971C9.22152 9.18246 9.22152 9.18835 9.2274 9.22125C9.23124 9.25427 9.237 9.30278 9.237 9.30278C9.25668 9.29327 9.27446 9.28025 9.28948 9.26438C9.29921 9.30714 9.27975 9.37498 9.28948 9.42362C9.29549 9.4532 9.30525 9.48189 9.31854 9.50899C9.32137 9.50235 9.32462 9.4959 9.32827 9.48966C9.33211 9.47994 9.36667 9.5945 9.46228 9.68166C9.4622 9.66826 9.4655 9.65505 9.47188 9.64326C9.47335 9.66761 9.4814 9.6911 9.49518 9.71123C9.48802 9.70782 9.48149 9.70324 9.47585 9.69766C9.47585 9.69766 9.48545 10.0049 9.53793 10.1637C9.5467 10.1534 9.5545 10.1424 9.56123 10.1307C9.56123 10.1211 9.55739 10.2162 9.54766 10.2843C9.53409 10.3523 9.54382 10.4474 9.54382 10.4474C9.57883 10.4198 9.6173 10.3969 9.65825 10.3794C9.71649 10.356 9.81185 10.2842 9.86996 10.1249C9.90368 10.0348 9.92967 9.94187 9.94766 9.8473C9.96643 9.88344 9.97939 9.92232 9.98606 9.9625C9.99003 10.011 10.0813 9.98579 10.0813 9.98579L10.1007 9.77408L10.2159 9.29446L10.3208 8.99738L10.8256 8.21107L11.7377 7.50861L12.5339 7.69114L13.2056 6.7785L12.0484 6.08333L10.9532 6.19789L9.95931 7.57453L9.16328 8.82317L9.01953 9.02899V9.02912Z" fill="#D8B65B"></path><path fill-rule="evenodd" clip-rule="evenodd" d="M14.7553 7.03693C14.7553 7.03693 14.6873 7.05049 14.4912 7.15213C14.2951 7.25376 14.1592 7.28601 14.0834 7.43552C14.0077 7.58502 14.0019 7.70355 14.0019 7.70355C14.0019 7.70355 14.1359 7.64531 14.2136 7.62585C14.2951 7.60653 14.3864 7.61229 14.3767 7.64531C14.3673 7.66795 14.3544 7.68892 14.3383 7.70739C14.3383 7.70739 14.4919 7.70355 14.4878 7.77933C14.4837 7.8551 14.4587 7.93856 14.4297 7.97542C14.4005 8.01382 14.2802 8.07065 14.2666 8.11533C14.2336 8.20659 14.2802 8.21043 14.2626 8.28416C14.2491 8.35609 14.1851 8.49587 13.9753 8.74048C13.7597 8.98521 13.6681 9.15801 13.6681 9.15801C13.6681 9.15801 13.5632 8.96192 13.5088 8.79296C13.4704 8.81229 13.2642 8.92685 13.2642 8.92685L12.7865 7.26285L12.7961 7.15213C12.7961 7.15213 12.8389 7.09977 12.8486 7.00262C12.7768 6.97933 12.7671 6.95987 12.6719 6.86873C12.5766 6.7776 12.4991 6.66675 12.3399 6.59097C12.3167 6.54822 12.2875 6.49011 12.171 6.46669C12.0545 6.44326 11.9846 6.42406 11.9846 6.42406C11.9846 6.42406 12.0467 6.40064 12.0759 6.35213C12.0039 6.36185 11.9458 6.38515 11.7885 6.38131C11.6293 6.37734 11.6118 6.37158 11.5245 6.38515C11.4372 6.39872 11.3325 6.43763 11.2934 6.30361C11.2507 6.27059 11.1594 6.29977 11.0817 6.41421C11.004 6.52864 10.9769 6.62003 10.8274 6.6647C10.8169 6.7306 10.7938 6.79387 10.7594 6.85107C10.7167 6.92301 10.6487 6.99481 10.5574 7.10157C10.4137 7.27053 10.437 7.54816 10.2079 7.75987C9.97681 7.97145 10.2463 7.17337 10.2463 7.17337L10.6151 6.29017L11.6656 5.26297L13.2967 5.15238L13.456 5.99718L14.2521 6.27097L14.7551 7.03795L14.7553 7.03693Z" fill="#D3AE4D"></path><path fill-rule="evenodd" clip-rule="evenodd" d="M15.0139 7.2233L14.3284 6.23501L13.8488 5.86598C13.8488 5.86598 13.507 5.23699 13.4837 5.21754C13.4643 5.20397 13.142 5.16902 12.9362 5.15546L12.9746 5.25056C13.0195 5.26515 13.0594 5.29207 13.0898 5.32826C13.181 5.43309 13.2393 5.6311 13.0315 5.84282C13.1131 5.87187 13.1467 5.88122 13.2179 5.87187C13.1461 5.95738 12.983 6.1399 12.9733 6.29914C12.9636 6.42918 13.0451 6.46797 13.0451 6.46797C13.0451 6.46797 12.9208 6.61171 12.915 6.85197C12.9737 6.78578 13.038 6.72471 13.107 6.66944C13.2508 6.55424 13.4488 6.4247 13.5828 6.34317C13.581 6.37738 13.5856 6.41164 13.5964 6.44416C13.5964 6.44416 13.8468 6.23834 14.0572 6.3296C14.1523 6.37235 14.1095 6.50637 14.1095 6.50637C14.1095 6.50637 14.2397 6.45786 14.331 6.54912C14.4222 6.64038 14.5523 6.87526 14.6183 6.96666C14.6474 7.00941 14.7232 7.09094 14.8007 7.21702C14.9067 7.39375 14.9952 7.58041 15.0649 7.77434C15.0688 7.69664 15.0844 7.58797 15.2185 7.58797L15.0146 7.22291L15.0139 7.2233Z" fill="#CAA13E"></path><path fill-rule="evenodd" clip-rule="evenodd" d="M4.73787 10.0311C4.73787 10.0311 4.68936 9.91066 4.73787 9.67578C4.78638 9.4409 4.86216 9.33018 4.88737 8.98458C4.91259 8.63898 5.13787 8.20787 5.13787 8.20787L5.7611 7.92448L6.20193 8.0448L6.33198 8.63514L5.77467 8.94234C5.77467 8.94234 5.74561 9.07238 5.5883 9.17722C5.43099 9.28205 5.21352 9.36358 5.16117 9.47046C5.12987 9.53591 5.10703 9.60508 5.0932 9.67629C5.0932 9.67629 4.93397 9.64326 4.83886 9.7481C4.73787 9.85498 4.74171 9.95008 4.73787 10.0316V10.0311Z" fill="#F4EFC8"></path><path fill-rule="evenodd" clip-rule="evenodd" d="M5.99612 9.87379C5.99612 9.87379 5.94364 9.90682 5.90485 9.98899C5.86645 9.92691 5.77468 9.55789 5.77084 9.22586C5.767 8.89382 5.74716 8.81152 5.82396 8.69709C5.90076 8.58266 6.20194 8.46208 6.15919 8.256C6.11644 8.0599 5.93775 7.97837 5.71836 8.03469C5.56476 8.07309 5.45045 8.39974 5.29122 8.56281C5.17077 8.6871 5.02716 8.66765 4.98837 8.73561C4.93589 8.82688 4.98441 8.91814 4.96892 8.97638C4.96495 8.99584 4.91644 9.10067 4.82901 9.22688C4.65237 9.48121 4.35337 9.84051 4.31445 10.1628C4.32802 9.98029 4.31842 9.97645 4.36693 9.77446L4.33775 9.72595L4.52975 9.09683L4.65404 8.57843L4.9318 7.71033L5.42101 6.82304L5.89679 6.29094L6.39189 6.32397L6.45013 7.06765L6.73365 8.46387L7.32975 9.19782L6.37436 9.84077L5.99573 9.87379H5.99612Z" fill="#EBCC73"></path><path fill-rule="evenodd" clip-rule="evenodd" d="M6.29314 10.1376C6.29314 10.1376 6.2116 10.1571 6.18242 10.1416C6.15323 10.1261 6.12431 10.1085 6.13391 10.0891C6.14351 10.0696 6.19599 10.0367 6.19599 10.0211C6.19706 10.007 6.1926 9.99303 6.18354 9.98216C6.17448 9.97128 6.16155 9.96437 6.14747 9.96288C6.1028 9.95712 6.08923 9.98617 6.08923 9.98617C6.08923 9.98617 6.04648 9.95328 6.01167 9.94777C6.03226 9.94525 6.05299 9.94393 6.07374 9.94381C6.02009 9.9195 5.96317 9.90316 5.90479 9.89529C5.9533 9.86624 6.04853 9.78073 6.11061 9.78073C6.17269 9.78073 6.2116 9.77113 6.20187 9.73811C6.19215 9.70509 6.14363 9.65657 6.09128 9.63712C6.11061 9.61382 6.1243 9.57888 6.07771 9.48352C6.02907 9.38841 6.04853 9.32429 6.06414 9.30112C6.07771 9.27193 6.12623 9.21958 6.14952 9.18656C6.17282 9.15353 6.19227 9.10886 6.23106 9.08557C6.25051 9.072 6.31259 9.04717 6.3748 9.02349C6.44277 9.00019 6.49909 8.97101 6.53787 9.00019C6.58063 9.02925 6.56117 9.06816 6.56117 9.06816C6.56117 9.06816 6.69518 9.01952 6.8155 9.08173C6.93595 9.13984 7.2292 9.17683 7.2292 9.17683L7.33429 9.38854L6.63912 9.98464L6.35176 10.1284L6.29352 10.138L6.29314 10.1376Z" fill="#E5C66B"></path><path fill-rule="evenodd" clip-rule="evenodd" d="M7.25806 9.16314C7.25806 9.16314 7.04251 9.30688 6.994 9.35923C7.02305 9.3632 7.07156 9.38266 7.05211 9.41171C7.02881 9.44077 6.88904 9.54176 6.81134 9.63699C6.7298 9.7321 6.65211 9.85255 6.62497 9.91079C6.59592 9.96314 6.37448 10.1166 6.29883 10.1359C6.45806 10.1359 6.77844 9.93984 6.89876 9.93984C6.89492 9.99808 6.93179 10.0641 6.99976 10.0699C7.06772 10.0756 7.26382 10.1126 7.52788 9.94957C7.79195 9.79034 7.70465 9.67181 7.81524 9.59424C8.02696 9.45434 8.11233 9.33005 8.22881 9.25248C8.34529 9.17491 8.40558 9.15725 8.40558 9.15725C8.40558 9.15725 8.40942 9.09901 8.44398 9.1049C8.45344 9.10598 8.46242 9.10963 8.46996 9.11545C8.47749 9.12127 8.48329 9.12904 8.48673 9.13792C8.48673 9.13792 8.68872 8.99418 8.94753 8.95539C8.94149 8.95269 8.93666 8.94786 8.93396 8.94183C8.93396 8.94183 8.95329 8.9321 8.95726 8.92237C8.95726 8.92237 8.97083 8.90291 8.98056 8.91264C8.99028 8.92237 9.00385 8.99418 9.02331 9.02336C9.06606 9.00391 9.1476 8.82138 9.1476 8.82138L9.34382 8.26023V7.74759L9.19022 7.77677L8.03822 8.26599L7.33908 8.99034L7.25755 9.16314H7.25806Z" fill="#E6BD62"></path><path fill-rule="evenodd" clip-rule="evenodd" d="M10.5749 6.64858C10.6372 6.63346 10.6969 6.60922 10.7522 6.57664C10.7289 6.63885 10.7289 6.70682 10.6279 6.8544C10.5269 7.00199 10.5231 7.02336 10.4415 7.17671C10.36 7.33594 10.3503 7.56506 10.2726 7.66592C10.3074 7.649 10.3447 7.63789 10.3832 7.63303C10.3832 7.63303 10.3056 7.70099 10.2726 7.7728C10.2395 7.84461 10.1813 7.99411 10.0377 8.08551C9.89407 8.1769 9.71141 8.23501 9.51531 8.45056C9.31909 8.66215 9.11723 8.93018 9.01611 9.02656C9.06859 8.9353 9.1404 8.75277 9.15986 8.63245C9.17931 8.51213 9.15589 8.36826 9.18891 8.20915C9.22194 8.05005 9.22194 7.93536 9.38091 7.6576C9.53989 7.37984 9.81202 6.41485 9.81202 6.41485L10.3984 6.22848L10.5752 6.64794L10.5749 6.64858Z" fill="#B6933F"></path><path fill-rule="evenodd" clip-rule="evenodd" d="M10.1516 6.29325C10.1516 6.29325 9.97494 6.54758 9.92643 6.77286C9.87792 6.99814 9.92246 6.97869 9.8934 7.08941C9.87603 7.15691 9.87603 7.22772 9.8934 7.29523C9.95458 7.19668 10.0383 7.1141 10.1378 7.05433C10.3048 6.95347 10.4407 6.88153 10.5218 6.79616C10.6033 6.7049 10.6713 6.55539 10.8479 6.44083C10.7761 6.4311 10.6751 6.39808 10.6559 6.40243C10.7278 6.32089 10.9433 6.19661 11.1607 6.0471C11.3763 5.8935 11.3627 5.83155 11.7123 5.67821C11.5977 5.69766 11.5433 5.66848 11.4481 5.67821C11.4865 5.59667 11.6209 5.55776 11.7553 5.42387C11.8897 5.28998 11.6699 5.09184 11.6699 5.09184L10.6459 5.71123L10.1508 6.29376L10.1516 6.29325Z" fill="#C49937"></path><path fill-rule="evenodd" clip-rule="evenodd" d="M7.37256 5.83104L7.39585 5.64467L7.6891 5.17478L7.99592 4.34957V3.22138L7.97262 2.56896L8.02113 2.1417L8.058 2.00589L8.09691 1.95341L8.34728 2.08346L8.69301 2.55334L8.72603 3.46022L8.39003 4.89126L7.4308 5.93792L7.37256 5.83104Z" fill="#DFC068"></path><path fill-rule="evenodd" clip-rule="evenodd" d="M8.13572 1.90093C8.13572 1.90093 7.98212 1.90489 7.94935 2.54374C7.91659 3.18259 7.90072 3.51846 7.87742 3.83501C7.85412 4.15155 7.79985 4.34368 7.77259 4.53017C7.74532 4.71667 7.72984 4.97088 7.64254 5.12627C7.60414 5.19808 7.52209 5.42336 7.32983 5.59232C7.11428 5.77869 6.79223 5.90886 6.74347 5.91859C6.65796 5.93792 6.22494 5.98067 6.0483 6.07782C5.98622 6.11085 5.87934 6.14963 5.76094 6.26035C5.52593 6.47193 5.21336 6.85056 4.98807 7.30688C4.64247 7.98848 4.29688 9.9127 4.29688 9.9127L4.37457 9.78265C4.37457 9.78265 4.3843 9.60985 4.5571 9.30688C4.72606 9.00403 4.67755 8.66419 4.91243 8.08358C5.00369 7.86227 5.11825 7.57491 5.25803 7.33017C5.47947 6.93209 5.74737 6.59033 6.01732 6.40397C6.45803 6.10112 6.94353 6.03507 6.94353 6.03507L7.4659 5.68947C7.4659 5.68947 7.55716 5.51283 7.67761 5.31085C7.84644 5.02746 8.06161 4.71091 8.10859 4.25075C8.18052 3.56915 8.0076 3.12256 8.01732 2.71872C8.02705 2.31488 8.03089 2.01779 8.11256 1.94586C8.19422 1.87392 8.13585 1.90118 8.13585 1.90118L8.13572 1.90093Z" fill="#A88F33"></path><path fill-rule="evenodd" clip-rule="evenodd" d="M8.136 4.9495C8.136 4.9495 8.3664 4.38246 8.47187 3.87955C8.49132 3.77856 8.53011 3.6777 8.53984 3.59616C8.58835 3.12039 8.60192 2.92429 8.53984 2.66406C8.49132 2.47206 8.30496 2.29901 8.2078 2.16486C8.1127 2.02496 8.06803 1.97286 8.08748 1.94342C8.10694 1.91398 8.18259 1.86586 8.25632 1.87162C8.33469 1.8739 8.41178 1.89209 8.4829 1.9251C8.55401 1.95811 8.61768 2.00524 8.67001 2.06362C8.81952 2.23642 8.93792 2.82291 8.93792 2.82291L9.06246 3.5968L9.379 4.57152L8.13625 4.95027L8.136 4.9495Z" fill="#C99E3D"></path><path fill-rule="evenodd" clip-rule="evenodd" d="M10.3009 4.3593C10.3009 4.3593 10.2581 4.37862 10.1806 4.3593C10.1839 4.39099 10.1784 4.42299 10.1647 4.45176C10.151 4.48054 10.1296 4.50497 10.1029 4.52237C10.0213 4.48934 9.25808 4.55539 9.25808 4.55539C9.25808 4.55539 8.90275 4.49318 8.79203 4.0233C8.71446 3.71059 8.85027 3.27962 8.8056 2.9961C8.73763 2.57856 8.64253 2.4969 8.6328 2.36698C8.62307 2.23706 8.61334 2.2039 8.61334 2.12237C8.57059 2.11264 8.54537 2.09907 8.50275 2.09907C8.49302 2.06067 8.51235 2.02714 8.46973 1.95917C8.49302 1.9689 8.65225 1.98835 8.83862 2.16499C8.99222 2.30874 8.99222 2.36109 9.01539 2.39027C9.04445 2.41933 9.27945 2.62067 9.38045 2.82138C9.48144 3.02208 9.67753 3.66208 9.72221 3.76691C9.73577 3.80966 9.76496 3.85242 9.83741 3.94944C9.95005 4.08934 10.115 4.32064 10.3014 4.35904L10.3009 4.3593Z" fill="#B58634"></path><path fill-rule="evenodd" clip-rule="evenodd" d="M9.04297 2.4C9.1606 2.59002 9.26627 2.78718 9.35939 2.99034C9.47395 3.24851 9.54191 3.46023 9.68566 3.63303C9.60796 3.40787 9.4701 2.96512 9.38857 2.80781C9.2973 2.64141 9.11094 2.46221 9.04297 2.40013V2.4Z" fill="#A88F33"></path><path fill-rule="evenodd" clip-rule="evenodd" d="M7.72244 5.59232C7.72244 5.59232 7.52634 5.64083 7.16128 5.83309C7.04084 5.89517 6.9264 5.94752 6.81568 5.99616C6.52807 6.12621 6.21959 6.2464 5.97485 6.31271C5.99431 6.336 6.00391 6.3456 6.00391 6.3456C6.00391 6.3456 6.00391 6.44083 6.05639 6.49511C6.02733 6.52429 5.63885 6.78835 5.75354 7.67181C5.83111 7.64275 5.92237 7.60384 5.93594 7.60384C5.95936 7.60781 5.96512 7.67181 5.99418 7.67181C6.02324 7.67181 6.11847 7.63341 6.21946 7.50285C6.21562 7.55533 6.15738 8.08346 6.46996 8.43879C6.5282 8.37082 6.67578 8.14554 6.67578 8.14554L6.67962 8.07373C6.67962 8.07373 6.69319 7.82323 6.77485 7.59411C6.85652 7.36499 7.01562 7.19603 7.01562 7.19603L7.84647 6.0096L7.72218 5.59219L7.72244 5.59232Z" fill="#E6C367"></path><path fill-rule="evenodd" clip-rule="evenodd" d="M6.94574 7.3344C6.9077 7.36128 6.86579 7.38221 6.82145 7.39648C6.80788 7.34797 6.78843 7.18093 6.90299 7.01785C7.037 6.82163 7.33012 6.56729 7.41166 6.36505C7.46414 6.23488 7.44084 5.90873 7.90689 5.4912C8.37294 5.07366 8.55534 4.93005 8.55534 4.93005L9.30875 4.55142L10.235 4.91648L9.7748 6.72L9.41755 7.5648L7.99675 7.29689L6.94561 7.3344H6.94574Z" fill="#DCBA5A"></path><path fill-rule="evenodd" clip-rule="evenodd" d="M7.48779 6.84467L7.66456 6.62336V6.46605C7.66456 6.46605 7.86066 6.41357 8.07224 6.19802C8.28382 5.98246 8.57707 5.5689 8.83538 5.59411C9.09368 5.6233 9.1189 6.15526 9.12863 6.3049C9.13835 6.45453 9.17138 6.79411 9.22373 6.97677C9.28197 7.1593 8.59461 7.8505 8.59461 7.8505L8.12779 8.20582L7.48779 6.84467Z" fill="#E9CE77"></path><path fill-rule="evenodd" clip-rule="evenodd" d="M8.03516 8.68736C8.03516 8.68736 8.1789 8.46208 8.07356 8.41357C8.13564 8.27379 8.2502 8.12621 8.2502 8.12621C8.2502 8.12621 8.33173 7.92435 8.5958 7.67578C8.85986 7.4272 9.02306 7.26208 9.06581 7.09517C9.09217 6.98639 9.10651 6.87505 9.10856 6.76314C9.13711 6.78646 9.16765 6.80723 9.19983 6.82522C9.24258 6.84467 9.44444 7.01159 9.41538 7.34759C9.38632 7.68359 9.26178 7.82336 9.26178 7.82336C9.26178 7.82336 9.14146 7.94368 9.05608 8.00589C8.96469 8.06797 8.9318 8.13978 8.77832 8.14567C8.7941 8.13313 8.81183 8.12326 8.8308 8.11648C8.8308 8.11648 8.67157 8.09715 8.58607 8.17472C8.50056 8.25229 8.3188 8.49127 8.22754 8.5632C8.13628 8.62144 8.03554 8.68749 8.03554 8.68749L8.03516 8.68736Z" fill="#CDAE50"></path><path fill-rule="evenodd" clip-rule="evenodd" d="M14.4914 4.91059C14.262 4.82698 14.0209 4.77982 13.7769 4.77082C13.3691 4.75725 12.773 4.78054 12.1886 4.78438C11.5594 4.78822 10.9886 4.56883 10.1964 4.53005C10.0663 4.45235 9.73557 4.11251 8.70312 4.8329C8.7652 4.82906 9.45269 4.67366 9.69141 4.9728C9.93218 5.26989 9.86421 5.77472 9.83132 5.89504C9.76911 6.16307 9.56713 6.55334 9.48572 6.82714C9.40431 7.10093 9.42351 7.2448 9.36527 7.4368C9.30703 7.6288 9.1789 7.72416 9.25455 7.94547C9.35554 7.88339 9.40815 7.88339 9.57685 7.50477C9.74556 7.12614 9.71087 6.85619 9.99055 6.53581C10.2643 6.2135 10.7201 5.77267 10.8935 5.66195C11.0668 5.55123 12.4429 4.83674 13.8838 5.51834C14.2313 5.48147 14.4915 4.91047 14.4915 4.91047L14.4914 4.91059Z" fill="#D2A83E"></path><path fill-rule="evenodd" clip-rule="evenodd" d="M9.28345 4.6464C9.28202 4.63181 9.2788 4.61745 9.27385 4.60365C9.26038 4.57525 9.24268 4.54906 9.22137 4.52595C9.22137 4.52595 8.87961 4.46387 8.70681 4.4832C8.40383 4.51622 8.13004 4.89101 8.00192 5.08326C7.87379 5.27552 7.71456 5.57248 7.54176 5.72595C7.54365 5.711 7.5402 5.69586 7.53203 5.6832C7.53203 5.6832 7.54176 5.69677 7.52243 5.71622C7.5031 5.73568 7.50297 5.74528 7.5127 5.75462L7.54188 5.78368C7.55148 5.78368 7.81951 5.66323 8.18457 5.32288C8.57292 4.96755 8.87001 4.78528 9.0254 4.72282C9.10827 4.6876 9.19489 4.66196 9.28358 4.6464H9.28345Z" fill="#C29637"></path><path fill-rule="evenodd" clip-rule="evenodd" d="M15.9126 3.18643C15.9126 3.18643 15.8503 3.264 15.7726 3.3495C15.5998 3.53203 15.3746 3.73773 15.1823 3.94944C14.9999 4.15142 14.7941 4.30874 14.5629 4.5728C14.3317 4.83686 14.0637 5.12998 13.9959 5.21549C13.9338 5.30099 13.8853 5.44077 13.8853 5.51258C13.8523 5.48928 13.8135 5.46406 13.8135 5.46406C13.8298 5.49455 13.8493 5.52321 13.8717 5.54957C13.9202 5.61754 13.9959 5.70317 14.0348 5.75539C14.0825 5.82187 14.1168 5.89706 14.1357 5.9767C14.1589 5.98054 14.3085 6.00973 14.495 5.70291C14.6814 5.3961 14.9259 5.06022 14.9259 5.06022L15.3143 4.48346L15.559 3.99424L15.8662 3.44666L15.9129 3.18643H15.9126Z" fill="#AC8132"></path><path fill-rule="evenodd" clip-rule="evenodd" d="M16.3107 2.79424C16.3107 2.79424 16.0757 2.98624 15.9844 3.10144C15.8932 3.21664 15.6772 3.51898 15.6772 3.51898L15.7549 3.50925L16.1492 3.15981L16.3028 2.88602L16.3106 2.79475L16.3107 2.79424Z" fill="#A88F33"></path><path fill-rule="evenodd" clip-rule="evenodd" d="M16.2388 18.2253C16.2388 18.2253 16.235 18.066 16.3243 17.9709C16.4156 17.8757 16.6466 17.7359 16.8719 17.2116C17.0972 16.6874 17.1223 16.569 17.1223 16.569C17.1223 16.569 16.7184 16.9146 16.4695 16.9961C16.5277 16.8756 16.5607 16.7903 16.5899 16.7281C16.5569 16.699 16.4171 16.666 16.4036 16.6505C16.4811 16.5728 16.5239 16.3825 16.6812 16.2563C16.8832 16.1027 17.2521 15.8387 17.5388 15.6035C17.8255 15.3682 18.3892 14.821 18.4612 14.6618C18.5039 14.7238 18.5135 14.7626 18.5135 14.7626C18.5135 14.7626 18.2301 15.1316 18.0825 15.3665C17.9524 15.5685 17.9621 15.6831 17.9621 15.6831L18.2301 15.5679C18.2301 15.5679 18.3077 15.8552 17.9563 16.2922C18.1099 16.234 18.1719 16.2689 18.2592 16.2203C18.1154 16.3117 17.9174 16.436 17.731 16.7776C17.5485 17.1194 17.2999 17.5174 16.8806 17.7659C16.4728 18.028 16.2378 18.2241 16.2378 18.2241L16.2388 18.2253Z" fill="#A67A2E"></path><path fill-rule="evenodd" clip-rule="evenodd" d="M15.1867 5.1127C15.1867 5.1127 15.0274 5.44461 15.0041 5.70291C15.0003 5.76512 14.9847 5.81363 14.9847 5.88544C14.9809 6.11648 14.9983 6.37478 14.9463 6.4951C14.9268 6.44659 14.9171 6.41357 14.8977 6.39424C14.8686 6.47578 14.8161 6.73011 14.7734 6.82522C14.754 6.76314 14.7113 6.54759 14.7153 6.29325C14.7192 6.03891 14.7249 5.99027 14.7249 5.93792C14.7153 6.01549 14.6628 6.12045 14.6433 6.18253C14.6143 6.13018 14.5812 6.06221 14.5423 6.00589C14.519 6.04429 14.49 6.10099 14.4648 6.13018C14.4608 6.10688 14.4512 6.04467 14.4453 5.95738C14.4415 5.85639 14.4356 5.72634 14.4415 5.69907C14.4511 5.64672 14.5327 5.4409 14.7055 5.25248C14.9113 5.0272 15.1231 4.5943 15.1851 4.46029C15.2472 4.32627 15.5113 3.76909 15.5113 3.76909H15.7133L15.42 4.43699C15.42 4.43699 15.2434 4.80205 15.1521 4.93619C15.0609 5.07034 14.8686 5.45472 14.7831 5.60422C14.8452 5.52269 14.8977 5.47994 14.9599 5.40224C15.02 5.34784 15.1869 5.11296 15.1869 5.11296L15.1867 5.1127Z" fill="#8C6228"></path><path fill-rule="evenodd" clip-rule="evenodd" d="M16.3146 2.7689C16.2816 2.87044 16.2295 2.96473 16.161 3.04666C16.0406 3.1904 15.7822 3.38253 15.6562 3.53587C15.541 3.68538 15.3106 4.09319 15.4153 4.57664C15.4537 4.47181 15.526 4.26407 15.7182 4.02906C15.9105 3.79405 16.1163 3.52423 16.2174 3.31456C16.3183 3.10285 16.3319 2.93594 16.3319 2.93594L16.3703 2.88743L16.347 2.77671L16.314 2.7689H16.3146Z" fill="#CBA94C"></path><path fill-rule="evenodd" clip-rule="evenodd" d="M20.2465 15.6485C20.2465 15.6485 20.1688 15.4369 20.1455 15.2447C20.1222 15.0524 20.1839 15.0143 20.1125 14.7942C20.0697 14.6602 19.9922 14.679 19.9727 14.6602C19.9533 14.6414 19.9397 14.4389 19.9435 14.3282C19.9474 14.2175 19.9397 14.0739 19.9202 14.0117C19.8912 13.9884 19.8717 13.9689 19.829 13.8253C19.7805 13.6815 19.7572 13.6097 19.7339 13.5671C19.7106 13.5245 19.6425 13.4856 19.6425 13.4428C19.6425 13.3573 19.7202 13.3128 19.7202 13.2892C19.7163 13.2407 19.6581 13.2796 19.6425 13.2659C19.6231 13.2426 19.6911 13.1028 19.6659 13.0834C19.6562 13.0738 19.5882 13.1553 19.5707 13.132C19.5512 13.1086 19.5279 12.8776 19.493 12.7242C19.4601 12.5747 19.425 12.466 19.4212 12.4214C19.4173 12.3786 19.1531 11.6252 19.0891 11.4427C19.0375 11.2885 18.9941 11.1316 18.9591 10.9728C18.9396 10.8815 18.9261 10.695 18.9163 10.7145C18.9066 10.734 18.9125 10.8291 18.8969 10.8252C18.8833 10.8212 18.8348 10.4893 18.8193 10.4369C18.8057 10.3844 18.7241 10.2065 18.7041 10.0777C18.6846 9.94752 18.642 9.60768 18.6128 9.37664C18.5837 9.1456 18.5701 9.0505 18.5701 8.99264C18.5749 8.85113 18.5671 8.70948 18.5468 8.56935C18.5084 8.32461 18.4316 8.02752 18.3643 7.85485C18.2342 7.52858 17.8885 6.69363 17.8267 6.48589C17.8267 6.43341 17.8946 6.46259 17.8946 6.46259C17.8946 6.46259 18.0635 6.88589 18.1877 7.21203C18.3082 7.53831 18.4228 7.82567 18.4519 7.85485C18.4752 7.88391 18.6578 8.20429 18.7393 8.72858C18.8208 9.25287 18.8499 9.73632 18.8985 10.0586C18.9218 10.2122 18.9413 10.3752 18.9898 10.5382C19.0421 10.715 19.1237 10.8975 19.2306 11.1771C19.3218 11.4121 19.3898 11.6082 19.4267 11.7772C19.4694 11.9927 19.4694 12.1558 19.4946 12.2627C19.5181 12.3539 19.5529 12.5363 19.6345 12.8003C19.7162 13.0642 19.8364 13.4042 19.9179 13.6157C20.0773 14.039 20.1483 14.3924 20.1724 14.5809C20.1936 14.775 20.2656 15.4469 20.2461 15.6488L20.2465 15.6485Z" fill="#A88F33"></path><path fill-rule="evenodd" clip-rule="evenodd" d="M16.3243 2.7456L16.3146 2.76889C16.3146 2.76889 16.3437 2.77862 16.3379 2.81753C16.3383 2.87077 16.3351 2.92397 16.3282 2.97677C16.3186 3.04473 16.2991 3.09709 16.2953 3.13984C16.2953 3.2311 16.3089 3.33593 16.1801 3.59616C16.1417 3.66797 16.118 3.73005 16.0985 3.7728C16.05 3.87763 16.0403 3.89325 15.9976 3.94176C16.0655 3.90336 16.3103 3.74976 16.4344 3.7728C16.349 3.82131 16.2189 3.91654 16.1373 4.04083C16.1568 4.04467 16.2383 4.06029 16.3677 4.04083C16.5833 4.00781 16.8241 3.93011 17.0356 3.9456C17.2668 3.95917 17.1755 3.66797 17.1755 3.66797L16.9088 3.0816L16.404 2.7264L16.3243 2.74573V2.7456Z" fill="#BE9C44"></path><path fill-rule="evenodd" clip-rule="evenodd" d="M17.6407 7.13792C17.6407 7.13792 17.4155 6.91264 17.3242 6.13952C17.2329 5.36281 17.2524 4.21952 17.2524 4.21952L17.0699 3.77293C17.0699 3.77293 17.0315 3.47584 16.9358 3.36525C16.8402 3.25465 16.6524 3.06816 16.5669 2.97689C16.4814 2.88563 16.3844 2.76134 16.3262 2.74189C16.3552 2.69337 16.4854 2.41958 16.9843 2.41574C17.4833 2.4119 17.6371 2.68953 17.6892 2.79053C17.7413 2.89152 17.9766 3.32813 18.0639 4.16013C18.1454 4.9911 18.1494 5.05331 18.1358 5.34067C18.1261 5.4999 18.0736 5.8688 17.9822 6.26291C17.8988 6.59699 17.8075 6.96985 17.6405 7.13869L17.6407 7.13792Z" fill="#A17C34"></path><path fill-rule="evenodd" clip-rule="evenodd" d="M16.9344 7.80006C17.0095 7.80548 17.0845 7.78856 17.15 7.75142C17.2218 7.74758 17.482 7.78061 17.6819 7.52627C17.6955 7.58438 17.7306 7.74182 17.6392 7.8816C17.6878 7.83296 17.7596 7.81363 17.7694 7.80006C17.7732 7.87187 17.8412 8.09318 17.5538 8.63104C17.6314 8.54566 17.7226 8.5495 17.8042 8.53978C17.8081 8.64077 17.8624 8.98048 17.7188 9.16314C17.6237 9.28742 17.4683 9.24851 17.4683 9.24851C17.4706 9.22138 17.4706 9.19411 17.4683 9.16698C17.4645 9.1145 17.445 9.06214 17.4587 9.0272C17.3836 8.9929 17.3152 8.94553 17.2567 8.8873C17.0878 8.72806 16.8684 8.45632 16.8529 8.25434C16.8334 8.02906 17.0354 7.98054 17.0354 7.98054C17.0185 7.96541 17.0041 7.9477 16.9927 7.92806C16.9829 7.89517 16.9732 7.84269 16.9344 7.80006Z" fill="#8C6228"></path><path fill-rule="evenodd" clip-rule="evenodd" d="M15.4366 5.35731C15.4366 5.35731 15.4269 5.34374 15.3745 5.40582C15.3842 5.34374 15.394 5.28538 15.3978 5.22906C15.4226 5.17691 15.4547 5.12856 15.493 5.08544C15.4639 5.14355 15.4444 5.19603 15.4444 5.19603C15.4444 5.19603 15.5163 5.06202 15.6212 4.98048C15.693 4.92224 15.7842 4.8951 15.823 4.8407C15.8658 4.78246 15.856 4.77274 15.8658 4.76301C15.8658 4.76301 15.961 4.70093 16.1067 4.51827C16.126 4.49498 16.1552 4.46976 16.1746 4.44646C16.2075 4.4329 16.2852 4.39795 16.3765 4.35123C16.4717 4.29888 16.5785 4.22707 16.6445 4.19763C16.7746 4.13939 16.9126 4.14528 16.9766 4.05389C17.0251 4.04032 17.0774 3.89466 17.0678 3.7705C17.1396 3.79955 17.5085 4.02867 17.6349 4.52966C17.7261 4.88499 17.5629 5.43258 17.495 5.69677C17.427 5.96096 17.4174 6.15693 17.3222 6.27725C17.2017 6.43661 16.8135 6.66125 16.7183 6.77248C16.6367 6.86374 16.3921 7.09478 16.4017 7.2617C16.4114 7.38598 16.5648 7.4537 16.5979 7.47725C16.6311 7.5008 16.6308 7.52973 16.693 7.51565C16.7552 7.50157 16.7784 7.4729 16.8038 7.4729C16.8328 7.47674 16.8328 7.48262 16.8464 7.48262C16.8562 7.48233 16.866 7.481 16.8756 7.47866C16.8756 7.47866 16.8658 7.65542 16.4523 7.70906C16.4231 7.71302 16.394 7.72262 16.357 7.72851C16.4057 7.70522 16.4347 7.70522 16.4872 7.63341C16.429 7.62368 16.2619 7.61395 16.2192 7.60038C16.2328 7.57709 16.2774 7.51488 16.3143 7.48582C16.3473 7.45677 16.3104 7.44742 16.2814 7.46253C16.2314 7.49656 16.1834 7.53349 16.1376 7.57312C16.0891 7.61587 16.0464 7.67411 15.9687 7.72672C15.9454 7.64902 15.9492 7.50144 16.0406 7.39469C16.0172 7.39853 15.9725 7.4665 15.9299 7.45293C15.9222 7.3821 15.9268 7.31048 15.9435 7.24122C15.9668 7.15379 16.093 7.00045 16.093 7.00045L16.7026 5.91104L16.8327 5.08582L15.4366 5.35706V5.35731Z" fill="#92723A"></path><path fill-rule="evenodd" clip-rule="evenodd" d="M15.4038 5.4039C15.4038 5.4039 15.3708 5.4272 15.4368 5.47187C15.4271 5.48544 15.4038 5.53395 15.3746 5.56697C15.3417 5.60537 15.3067 5.62918 15.2931 5.66221C15.264 5.73017 15.2408 5.77677 15.2408 5.80595C15.2408 5.83513 15.231 6.0215 15.1495 6.14182C15.1203 6.18457 15.0873 6.25638 15.064 6.30489C15.0155 6.39027 14.9727 6.45849 14.963 6.49689C14.9437 6.56486 14.9301 6.75123 14.9301 6.75123C14.9301 6.75123 14.9728 6.69875 14.9883 6.67942C14.9649 6.72793 14.9397 6.78029 14.9028 6.8192C14.9261 6.79974 14.9941 6.75123 15.1087 6.65024C15.2679 6.51635 15.5165 6.29107 15.8194 6.11264C15.728 6.14566 15.6505 6.14566 15.5884 6.15539C15.6369 6.10688 16.0738 5.59424 16.3029 5.54573C16.3168 5.52809 16.3237 5.50594 16.3224 5.48352L16.1261 5.46419L15.728 5.54957L15.6699 5.24237L15.4038 5.40352V5.4039Z" fill="#B18E3E"></path><path fill-rule="evenodd" clip-rule="evenodd" d="M16.0368 7.15149C16.0368 7.15149 15.9843 7.20384 15.9358 7.33402C15.8985 7.29502 15.8665 7.25124 15.8406 7.20384C15.7688 7.08352 15.6582 6.93005 15.3999 7.01747C15.3961 6.93594 15.3902 6.89318 15.3999 6.83494C15.4426 6.82534 15.5727 6.72051 15.7027 6.56704C15.7941 6.46221 15.8795 6.34176 15.9378 6.18842C15.9762 6.15923 16.0426 6.11072 16.1298 6.0544C16.254 5.96902 16.4035 5.85242 16.4268 5.72237C16.3686 5.74566 16.2443 5.8039 16.0578 5.7943C16.1298 5.76128 16.2403 5.72634 16.2268 5.58259C16.256 5.56314 16.2793 5.54957 16.2793 5.54957C16.2574 5.54227 16.2343 5.53897 16.2113 5.53984C16.2073 5.52627 16.2016 5.50694 16.1685 5.51654C16.1355 5.52614 16.1301 5.52627 16.1258 5.53984C16.1122 5.54381 16.0675 5.53984 16.0345 5.56326C16.0015 5.58669 15.9102 5.66413 15.8753 5.6777C15.8889 5.6544 15.9082 5.61958 15.9082 5.61958C15.9082 5.61958 15.8131 5.62918 15.7451 5.65798C15.6208 5.70074 15.4772 5.77843 15.3315 5.85408C15.3451 5.83078 15.351 5.81568 15.3606 5.81133C15.3702 5.80698 15.3936 5.80173 15.3936 5.79776C15.3936 5.79379 15.384 5.75936 15.3898 5.74541C15.4333 5.65315 15.4847 5.5648 15.5434 5.48134C15.6114 5.38995 15.6249 5.2599 15.6249 5.2599L15.922 5.1104L16.757 4.9184L17.2988 4.95142L17.2308 5.32621L16.9108 5.98054L16.637 6.57664L16.3243 6.94182L16.037 7.15149H16.0368Z" fill="#543E26"></path><path fill-rule="evenodd" clip-rule="evenodd" d="M17.3906 5.5296C17.3906 5.5296 17.0643 5.93344 16.973 5.99565C17.0313 5.87136 17.3906 5.13152 17.5206 4.92569C17.4916 4.9024 17.4526 4.9024 17.5439 4.54169C17.4663 4.72409 17.4391 4.81933 17.3751 4.86784C17.3111 4.91635 17.3031 4.90086 17.2599 4.90086C17.268 4.88608 17.2714 4.86913 17.2695 4.85235C17.2695 4.85235 16.9957 4.81933 16.8087 4.81933C16.6217 4.81933 16.2515 4.92032 16.0455 5.00185C15.8825 5.06982 15.7912 5.06982 15.733 5.11245C15.6747 5.16096 15.6417 5.21344 15.6125 5.22701C15.5892 5.24057 15.4786 5.27552 15.4533 5.31238C15.43 5.35078 15.3912 5.39392 15.3912 5.40365C15.3912 5.41337 15.3815 5.42707 15.4107 5.41721C15.4203 5.41337 15.4922 5.37446 15.5737 5.32595C15.6843 5.26387 15.8183 5.19206 15.9155 5.14931C16.1931 5.03859 16.2805 5.05805 16.4047 5.03475C16.5348 5.01145 16.7213 4.95705 16.8454 4.95705C16.9697 4.95321 17.2047 4.95705 17.2591 4.96678C17.2358 4.98624 17.2164 5.00953 17.2261 5.09107C17.2261 5.11437 17.2066 5.13958 17.1877 5.1959C17.1296 5.35513 17.0189 5.6192 16.9573 5.75321C16.8719 5.93561 16.7749 6.08909 16.7269 6.18419C16.6789 6.27929 16.5733 6.52979 16.4687 6.66381C16.3641 6.79782 16.3095 6.87936 16.2767 6.90854C16.2439 6.93773 16.0087 7.1104 16.0262 7.17261C16.069 7.15904 16.3389 7.05741 16.5349 6.83673C16.7309 6.61606 16.7699 6.48141 16.9232 6.36096C17.0766 6.24051 17.197 6.03865 17.2688 5.87174C17.329 5.71635 17.3154 5.66784 17.3911 5.52998L17.3906 5.5296Z" fill="#806031"></path><path fill-rule="evenodd" clip-rule="evenodd" d="M10.3593 8.54374C10.3593 8.54374 10.3166 8.72038 10.2194 8.80781C10.1243 8.89331 9.95537 8.96704 9.93604 9.11078C9.91274 9.2544 10.105 9.32633 10.105 9.32633C10.105 9.32633 10 9.49914 10 9.62918C10 9.7632 9.9962 9.78841 10.0098 9.91654C9.99437 9.92645 9.98127 9.93954 9.97137 9.95494C9.97137 9.95494 9.98097 10.0792 10.0762 10.1568C10.1714 10.2344 10.2528 10.2811 10.3014 10.2616C10.3088 10.2775 10.3153 10.2937 10.3208 10.3103C10.3208 10.3103 10.3927 10.1277 10.4413 9.96851C10.4898 9.80544 10.5325 9.82861 10.5518 9.60921C10.5712 9.38982 10.7822 9.01312 10.7822 9.01312L10.9262 8.6912L10.6914 8.50867L10.3593 8.54361V8.54374Z" fill="#B6903C"></path><path fill-rule="evenodd" clip-rule="evenodd" d="M10.7962 8.86016C10.7477 8.90988 10.703 8.9631 10.6624 9.01939C10.6003 9.1049 10.5518 9.18246 10.4605 9.21562C10.3693 9.24877 10.311 9.24851 10.3168 9.3399C10.3226 9.4313 10.4081 9.46995 10.4566 9.51654C10.5091 9.56506 10.5518 9.64659 10.5285 9.73799C10.5576 9.72442 10.61 9.7088 10.6586 9.60397C10.7071 9.49914 11.0464 8.86029 11.0464 8.86029H10.7962V8.86016Z" fill="#685026"></path><path fill-rule="evenodd" clip-rule="evenodd" d="M12.1343 7.38637C12.1343 7.38637 12.1633 7.3088 12.1343 7.25248C12.1051 7.19424 11.9284 7.17478 11.841 7.10874C11.7497 7.04077 11.639 6.99354 11.5478 7.02336C11.5613 6.99034 11.6157 6.9184 11.5711 6.90291C11.5283 6.88934 11.3692 6.96115 11.3264 6.99418C11.2837 7.0272 11.1865 7.06598 11.1672 7.08941C11.1479 7.11283 11.1147 7.15738 11.0953 7.13792C11.0758 7.12435 11.0662 7.08941 11.0332 7.10874C11.0002 7.12806 10.8412 7.25824 10.8119 7.33402C10.7826 7.40979 10.7167 7.57875 10.5186 7.77088C10.3206 7.96301 10.2351 8.08742 10.2934 8.15923C10.3516 8.23104 10.3789 8.17869 10.3886 8.24077C10.3961 8.30171 10.3928 8.36349 10.3789 8.4233C10.3556 8.52429 10.3168 8.61939 10.3691 8.63885C10.5031 8.6816 10.6333 8.60045 10.6624 8.62528C10.7206 8.67763 10.6294 8.86605 10.7672 8.90291C10.9071 8.94131 11.045 8.86989 11.045 8.86989L11.5536 8.5961L12.043 8.33792L12.2934 7.84269L12.1591 7.42912L12.1335 7.38637H12.1343Z" fill="#D4B968"></path><path fill-rule="evenodd" clip-rule="evenodd" d="M11.6544 8.56896C11.6544 8.56896 11.5689 8.43891 11.6739 8.32422C11.7788 8.20954 11.9282 8.16115 11.9864 8.08934C11.9754 8.07567 11.9605 8.06556 11.9437 8.06029C11.9824 7.99111 12.0413 7.93548 12.1127 7.90093C12.0836 7.87187 12.0447 7.84858 12.0021 7.84858C11.9068 7.84858 11.8485 7.90682 11.7612 7.90682C11.6758 7.90682 11.6661 7.86406 11.6661 7.86406C11.6661 7.86406 11.8098 7.8505 11.7961 7.78637C11.7825 7.7184 11.7577 7.7184 11.7577 7.7184C11.7577 7.7184 12.0353 7.6032 12.0839 7.54176C12.1324 7.48032 12.1266 7.40774 12.1363 7.37869C12.1692 7.37869 12.3615 7.2777 12.4392 7.32045C12.5169 7.3632 12.4625 7.47968 12.4625 7.47968C12.4625 7.47968 12.6976 7.30291 12.8174 7.1296C12.9223 7.13933 12.971 7.05779 13.0478 7.05779C13.1431 7.05779 13.2926 7.18784 13.3216 7.46547C13.3411 7.6247 13.3701 7.71597 13.3411 7.99757C13.3275 8.1568 13.3313 8.49677 13.3795 8.66547C13.4124 8.79949 13.4901 8.78592 13.4901 8.78592C13.4781 8.82676 13.4545 8.8632 13.4221 8.89075C13.3696 8.93926 13.3639 9.06752 13.3696 9.11603C13.3774 9.1515 13.3871 9.1865 13.3988 9.22086C13.3988 9.22086 13.3367 9.29267 13.3211 9.34131C13.3075 9.38982 13.2435 9.42285 13.1968 9.42285C13.1501 9.42285 13.1735 9.41888 13.1114 9.42285C13.0494 9.42682 13.0299 9.43642 12.991 9.42285C12.9521 9.40928 12.923 9.39366 12.9386 9.26925C12.9522 9.14496 12.459 8.85568 12.459 8.85568L11.6526 8.56832L11.6544 8.56896Z" fill="#CCA849"></path><path fill-rule="evenodd" clip-rule="evenodd" d="M10.7282 9.7961C10.7282 9.7961 10.9048 10.0311 11.6311 10.0311C11.9767 10.0311 12.0971 9.99808 12.1687 9.97862C12.2464 9.95917 12.5376 9.84474 12.8308 9.49901C13.0949 9.18643 13.0367 9.0583 13.0367 9.0583L12.8831 9.03501L12.3839 9.10298L10.9067 9.7321L10.7275 9.7961H10.7282Z" fill="#585136"></path><path fill-rule="evenodd" clip-rule="evenodd" d="M11.2697 9.85434C11.2697 9.85434 10.6406 9.99424 10.6406 9.59616C10.6406 9.20781 11.029 8.8 11.1261 8.72819C11.2271 8.65626 11.4679 8.57459 11.4679 8.57459H12.0485L12.1591 8.86784L12.1106 9.5008L11.2697 9.85421V9.85434Z" fill="#252211"></path><path fill-rule="evenodd" clip-rule="evenodd" d="M11.8503 8.69325C11.8503 8.69325 11.73 8.58253 11.4562 8.73165C11.1824 8.88077 10.9609 9.19245 10.9474 9.47546C10.9338 9.72582 11.1532 9.91232 11.495 9.92205C11.7493 9.93165 11.9028 9.90259 11.9805 9.88365C11.961 9.86035 11.86 9.73414 11.86 9.73414L11.8504 8.69338L11.8503 8.69325Z" fill="#C3B378"></path><path fill-rule="evenodd" clip-rule="evenodd" d="M11.7321 8.7552C11.7321 8.7552 11.7031 8.7319 11.6169 8.77849C11.5451 8.81689 11.4403 8.9184 11.3588 8.99021C11.3063 9.03296 11.2733 9.05229 11.2436 9.08531C11.1231 9.22905 11.0221 9.46406 11.0805 9.58054C11.1389 9.69702 11.331 9.83104 11.8203 9.73977L11.7307 8.75533L11.7321 8.7552Z" fill="#E6D89C"></path><path fill-rule="evenodd" clip-rule="evenodd" d="M11.5731 8.9961C11.5731 8.9961 11.4954 9.11655 11.4954 9.3088C11.4954 9.5049 11.6061 9.81747 12.0139 9.84077C12.3265 9.86022 12.5362 9.39034 12.7634 9.20781C12.9362 9.06803 13.041 9.06407 13.041 9.06407C13.041 9.06407 12.8643 8.87207 12.3925 8.62336C11.9265 8.37287 11.4041 8.33984 11.1206 8.72435C11.2546 8.71463 11.6876 8.6039 11.6876 8.6039L11.8994 8.67187L11.5731 8.99623V8.9961Z" fill="#252211"></path><path fill-rule="evenodd" clip-rule="evenodd" d="M12.1823 9.25043C12.1688 9.22137 12.159 9.18246 12.2154 9.17286C12.2717 9.16326 12.2969 9.16889 12.3163 9.21126C12.3358 9.25363 12.3547 9.28896 12.3259 9.30649C12.2969 9.32198 12.2211 9.30649 12.1822 9.25017L12.1823 9.25043ZM12.0911 8.97664C12.0911 8.97664 12.0716 8.99021 12.0813 8.96307C12.0852 8.93017 12.1105 8.87181 12.1726 8.8855C12.2347 8.8992 12.2212 8.96704 12.211 8.98649C12.2008 9.00595 12.1489 9.03885 12.11 9.02489C12.1051 9.02363 12.1005 9.02123 12.0967 9.01787C12.0929 9.01451 12.0899 9.0103 12.088 9.00557C12.0861 9.00085 12.0853 8.99574 12.0858 8.99067C12.0862 8.9856 12.0879 8.9807 12.0906 8.97638L12.0911 8.97664Z" fill="#6F674D"></path><path fill-rule="evenodd" clip-rule="evenodd" d="M6.83496 9.1008C6.83496 9.1008 6.98856 9.216 7.16699 9.21152C7.34363 9.20755 7.57083 9.02515 7.67566 8.90854C7.73774 8.84057 7.79086 8.76877 7.84846 8.71245C7.8971 8.66393 7.93 8.64064 7.9533 8.60761C7.98632 8.56921 8.02126 8.49702 8.0388 8.4736C7.99605 8.50662 7.93397 8.56499 7.86984 8.60377C7.80776 8.64217 7.67375 8.71437 7.61935 8.73382C7.56699 8.75328 7.02325 9.04102 7.02325 9.04102L6.83496 9.1008Z" fill="#AC924C"></path><path fill-rule="evenodd" clip-rule="evenodd" d="M7.06982 7.66605C7.06982 7.66605 7.1552 7.60781 7.32032 7.57081C7.47955 7.53241 7.79994 7.50285 7.79994 7.50285L8.064 7.61805L8.16883 8.01613L7.97683 8.42982L7.73222 8.58342L7.45446 8.13683L7.07046 7.66681L7.06982 7.66605Z" fill="#9F8E57"></path><path fill-rule="evenodd" clip-rule="evenodd" d="M6.7242 8.02138L6.63281 8.0896C6.63281 8.0896 6.65624 8.04685 6.67556 7.9168C6.69489 7.78675 6.79601 7.47021 6.9436 7.28768C7.09118 7.10515 7.08734 7.11488 7.08734 7.11488C7.07376 7.1124 7.05981 7.11283 7.04641 7.11617C7.03301 7.1195 7.02048 7.12565 7.00964 7.13421C7.0291 7.0912 7.15339 6.9376 7.27768 6.8608C7.40196 6.784 7.45048 6.75981 7.58052 6.8224C7.71057 6.88499 7.7436 6.9175 7.83883 6.91366C7.93406 6.90982 8.01547 6.80883 8.01547 6.80883C8.01547 6.80883 8.03492 6.87091 7.96312 7.01466C7.89131 7.1584 7.60779 7.45152 7.60779 7.45152L7.01745 7.85536L6.7242 8.02176V8.02138Z" fill="#EAC970"></path><path fill-rule="evenodd" clip-rule="evenodd" d="M7.16116 7.61754C7.16116 7.61754 7.58842 7.67578 7.71847 7.55546C7.72231 7.56903 7.73793 7.56903 7.73793 7.57875C7.73688 7.58609 7.73346 7.59287 7.7282 7.59808C7.74234 7.59582 7.75663 7.59454 7.77095 7.59424C7.78805 7.59933 7.80564 7.60259 7.82343 7.60397C7.83776 7.60366 7.85204 7.60233 7.86618 7.6C7.86483 7.60965 7.86155 7.61893 7.85654 7.62729C7.85152 7.63565 7.84488 7.64291 7.837 7.64864C7.85645 7.64864 7.8754 7.65248 7.8754 7.66797C7.8754 7.68346 7.87924 7.73018 7.85594 7.7399C7.83664 7.74524 7.8161 7.74384 7.7977 7.73594C7.79924 7.7727 7.80923 7.80862 7.82688 7.8409C7.86528 7.91271 7.9472 7.9945 8.05728 7.97094C8.05728 7.97094 8.1154 8.11072 7.87079 8.42138C7.83789 8.46413 7.80282 8.52237 7.7602 8.57088C7.74336 8.60759 7.73048 8.646 7.7218 8.68544C7.7218 8.68544 8.13549 8.52621 8.25389 8.16307C8.37434 7.79802 8.39764 7.43885 8.37434 7.10298C8.37037 7.00774 8.35489 6.9399 8.33159 6.89126C8.27335 6.77082 8.11015 6.79027 8.04423 6.85824C7.949 6.95347 7.78977 7.19027 7.56845 7.35334C7.34317 7.51642 7.33357 7.54534 7.16064 7.61754H7.16116Z" fill="#D7BC6B"></path><path fill-rule="evenodd" clip-rule="evenodd" d="M6.64854 8.14182C6.64854 8.14182 6.56701 8.19033 6.52426 8.37222C6.4815 8.55859 6.56266 8.78579 6.60963 8.8576C6.65661 8.92941 6.76323 9.12563 6.98442 9.13536C7.03916 9.13507 7.0933 9.12384 7.14365 9.10233C7.22086 9.06693 7.29329 9.0219 7.3592 8.96832C7.45443 8.89651 7.532 8.83443 7.52227 8.82854C7.49898 8.81881 6.9359 8.35277 6.9359 8.35277L6.72419 8.11648L6.64842 8.14208L6.64854 8.14182Z" fill="#585136"></path><path fill-rule="evenodd" clip-rule="evenodd" d="M7.18088 8.91456C7.18088 8.91456 7.29544 8.90496 7.36341 8.86221C7.43138 8.81946 6.96533 8.35738 6.96533 8.35738L6.99836 8.85658L7.18088 8.91456Z" fill="#453A25"></path><path fill-rule="evenodd" clip-rule="evenodd" d="M6.68565 8.10675C6.68565 8.10675 6.62741 8.21747 6.62741 8.24666C6.61768 8.34176 6.64687 8.64077 6.67016 8.73587C6.69346 8.83687 6.81967 8.99021 6.98287 8.99021C7.08373 8.99021 7.22364 8.92813 7.22364 8.91264C7.22364 8.89319 7.07989 8.87424 7.04111 8.80192C7.01781 8.76352 7.00808 8.66803 7.00271 8.57152C6.99887 8.50944 6.99887 8.44147 7.02216 8.41792C7.07464 8.35968 7.08424 8.19264 7.08424 8.19264L7.27061 7.8464H7.02549L6.73224 8.02893L6.68565 8.10675Z" fill="#84754B"></path><path fill-rule="evenodd" clip-rule="evenodd" d="M6.61377 8.21363C6.61377 8.21363 6.80577 7.9593 6.97883 7.90093C7.15188 7.84256 7.22932 7.87763 7.22932 7.87763L7.12833 8.13594L6.98459 8.29517L6.99431 8.3767C6.99431 8.3767 6.97089 8.59226 7.11463 8.74176C7.25838 8.89126 7.36513 8.8855 7.42734 8.8855C7.48955 8.8855 7.66811 8.83302 7.75937 8.61747C7.84091 8.41562 7.90887 8.15667 7.7458 7.89709C7.58644 7.63878 7.30497 7.6288 7.25057 7.6288C7.19617 7.6288 6.76903 7.65018 6.61377 8.21325V8.21363Z" fill="#252211"></path><path fill-rule="evenodd" clip-rule="evenodd" d="M11.5437 9.07763C11.4719 9.04461 11.5399 8.84275 11.6117 8.78054C11.6835 8.71834 11.7748 8.64666 11.9341 8.6368C11.9923 8.63296 12.0486 8.66982 12.039 8.70874C12.0254 8.78054 11.9244 8.88154 11.8332 8.95334C11.7069 9.05242 11.6253 9.1145 11.5437 9.07763Z" fill="#F7F7E7"></path><path fill-rule="evenodd" clip-rule="evenodd" d="M7.65993 7.97671C7.71241 7.97287 7.78038 8.01511 7.79395 8.07194C7.80752 8.13402 7.76092 8.25831 7.65993 8.25831C7.5784 8.25831 7.53564 8.15731 7.53564 8.12826C7.53656 8.10437 7.54324 8.08105 7.5551 8.06029C7.55894 8.0544 7.56867 7.98643 7.65993 7.97671Z" fill="#F8F6DE"></path><path fill-rule="evenodd" clip-rule="evenodd" d="M6.9028 8.02138C6.9028 8.02138 6.76878 8.08346 6.7067 8.21338C6.66235 8.30931 6.64893 8.41667 6.6683 8.52058C6.67803 8.56909 6.72654 8.68941 6.75957 8.73216C6.79259 8.77491 6.83726 8.8041 6.87029 8.80013C6.90331 8.79616 6.97115 8.70887 6.97115 8.65651C6.97115 8.60416 6.97512 8.38272 7.03912 8.26227C7.09544 8.14195 6.90318 8.02151 6.90318 8.02151L6.9028 8.02138Z" fill="#D4C38B"></path><path fill-rule="evenodd" clip-rule="evenodd" d="M6.92214 8.01165C6.89885 8.02522 6.86006 8.04467 6.86966 8.06989C6.87939 8.09318 6.96093 8.10829 6.99011 8.16512C7.02313 8.22336 7.02313 8.28544 7.01341 8.31462C7.03877 8.30257 7.06178 8.2861 7.08137 8.26598C7.12413 8.21747 7.17648 8.15155 7.22115 8.15155C7.25033 8.15155 7.27939 8.16512 7.30665 8.16512C7.34941 8.16512 7.39203 8.15155 7.39792 8.10688C7.40752 8.04864 7.31638 7.99616 7.2639 8.00589C7.27363 7.96749 7.2872 7.91078 7.24445 7.87187C7.20169 7.83296 7.06781 7.90106 7.03862 7.92051C7.00944 7.93997 6.92214 8.01178 6.92214 8.01178V8.01165Z" fill="#E2D59D"></path><path fill-rule="evenodd" clip-rule="evenodd" d="M10.0077 12.0913L10.295 12.0064L10.3766 12.0646C10.3766 12.0646 10.4347 12.1889 10.5261 12.2044C10.4969 12.2665 10.4211 12.3196 10.4251 12.3636C10.4291 12.4077 10.4678 12.4413 10.4678 12.4413C10.4678 12.4413 10.2095 12.8685 10.7183 13.2989C10.5979 13.3475 10.4445 13.4141 10.363 13.4525C10.4211 13.4661 10.5454 13.4909 10.5979 13.538C10.6504 13.5852 10.6504 13.6001 10.6989 13.6293C10.7474 13.6585 10.7764 13.6973 10.7668 13.7147C10.7338 13.6952 10.6231 13.6371 10.6038 13.6914C10.5844 13.7457 10.1242 13.7244 10.1242 13.7244L9.34746 13.8739C9.34746 13.8739 9.37651 13.7962 9.29498 13.7244C9.19987 13.639 9.08339 13.7283 8.9591 13.6332C8.79603 13.5089 8.79014 13.3651 8.73779 13.3108C8.79014 13.2778 8.89702 13.2293 9.15136 13.1956C9.14163 13.1762 9.10861 13.118 9.12806 13.0656C9.15136 12.9976 9.24838 12.9549 9.21933 12.8736C9.26208 12.8639 9.28141 12.8639 9.38829 12.7299C9.48928 12.5958 9.55136 12.5668 9.62906 12.5571C9.70675 12.5473 9.75334 12.5571 9.89709 12.423C9.99795 12.3279 9.96506 12.2464 9.96506 12.2464C9.96506 12.2464 10.031 12.225 10.0078 12.091L10.0077 12.0913Z" fill="#CBAC5A"></path><path fill-rule="evenodd" clip-rule="evenodd" d="M9.15914 12.1344C9.16298 12.1149 9.1786 12.1052 9.28343 12.1149C9.38826 12.1247 10.0523 12.0529 10.2329 12.0431C10.4155 12.0296 11.0581 12.0392 11.3709 12.1052C11.6836 12.1713 12 12.249 12.1533 12.2877C12.3069 12.3305 12.3553 12.3459 12.3494 12.3653C12.3456 12.3848 12.311 12.4037 12.2912 12.3983C12.2718 12.3945 11.763 12.2391 11.6059 12.2063C11.4487 12.1736 10.9048 12.0859 10.6075 12.0911C10.3298 12.0951 10.2191 12.0873 9.98423 12.1144C9.74922 12.1436 9.36087 12.1824 9.24439 12.1669C9.12919 12.1533 9.153 12.1533 9.15888 12.1339L9.15914 12.1344Z" fill="#D6BC6F"></path><path fill-rule="evenodd" clip-rule="evenodd" d="M10.7221 13.6563C10.7221 13.6563 11.1202 13.8719 11.2639 14.1359C11.3687 14.332 11.2018 14.4292 11.2018 14.4292C11.2018 14.4292 11.4271 14.4292 11.3979 14.5535C11.3844 14.631 11.0096 14.8407 10.7591 14.9514C10.5047 15.0621 10.5145 15.0564 10.3902 15.0757C10.2697 15.0952 9.93962 15.0373 9.87165 15.134C9.80368 15.2306 9.83325 15.3302 9.85219 15.3457C9.87165 15.3592 10.029 15.3787 10.029 15.3787C10.029 15.3787 9.99594 15.47 9.66979 15.4797C9.34365 15.4894 9.26198 15.5126 9.24253 15.5476C9.22307 15.5805 9.30461 15.5612 9.45424 15.586C9.60374 15.6093 9.81341 15.6244 9.81341 15.6244C9.81341 15.6244 9.74544 15.6827 9.5688 15.7293C9.36682 15.7816 9.05027 15.8303 8.95517 15.8885C9.00368 15.9215 9.07562 15.97 9.10877 15.9739C9.02723 15.9933 8.91254 16.0361 8.89322 16.0516C8.92227 16.071 8.96118 16.0943 8.96118 16.0943C8.96118 16.0943 8.79798 16.2904 8.70288 16.3391C8.60778 16.3877 8.06019 16.6419 7.87178 16.5934C7.40189 16.4691 7.34365 15.9546 7.22909 15.9158C7.05629 15.8575 6.97475 15.9739 6.82128 15.8924C6.88925 15.8438 6.92624 15.8148 6.99805 15.7818C6.92035 15.7434 6.51843 15.4885 6.51843 15.4885C6.4764 15.3969 6.42975 15.3075 6.37866 15.2206C6.30096 15.0866 6.18666 14.9079 6.1009 14.7506C5.91453 14.405 5.9048 14.2458 5.73584 14.0497C5.76502 14.0113 5.86589 14.0166 5.86589 14.0166L7.28157 14.4827L9.79178 14.5554L10.4446 13.6234L10.7222 13.6564L10.7221 13.6563Z" fill="#DFC677"></path><path fill-rule="evenodd" clip-rule="evenodd" d="M7.00391 15.0776C7.01905 15.0945 7.03671 15.1089 7.05626 15.1204C7.1049 15.1534 7.17671 15.1923 7.22522 15.2504C7.24467 15.2214 7.29319 15.1689 7.37882 15.2504C7.46445 15.332 7.57082 15.2739 7.63699 15.2932C7.70496 15.3166 7.7088 15.3262 7.7088 15.3262C7.7088 15.3262 7.7472 15.2932 7.83309 15.2582C7.88557 15.2388 7.94765 15.2252 8.01562 15.2059C8.0777 15.1923 8.14567 15.1729 8.19239 15.1729C8.23514 15.2019 8.38848 15.3649 9.00403 15.1244C9.58464 14.8991 9.71853 14.8739 9.81568 14.9087C9.82541 14.8854 9.83514 14.8407 9.98464 14.8466C9.98464 14.7845 9.86035 14.5728 9.86035 14.5728L9.17491 14.3379H8.8L7.67578 14.5437L7.0528 14.8992L7.00429 15.0784L7.00391 15.0776Z" fill="#C4A859"></path><path fill-rule="evenodd" clip-rule="evenodd" d="M6.62891 14.6835C6.62891 14.6835 6.64247 14.7884 6.79787 14.8991C6.95147 15.0097 6.99972 15.0757 6.99972 15.0757C6.99972 15.0757 7.02891 15.0373 7.0522 14.9981C7.0755 14.9554 7.09495 14.9069 7.13374 14.8933C7.21143 14.8603 7.38807 14.9224 7.42699 14.9126C7.46001 14.903 7.45028 14.8351 7.48523 14.8351C7.56676 14.8311 7.61911 14.8874 7.6483 14.8874C7.67748 14.8874 7.74916 14.8836 7.75889 14.8681C7.76862 14.8526 7.77246 14.6913 7.88318 14.6136C8.00363 14.5283 8.15121 14.5651 8.19038 14.5846C8.19038 14.6136 8.19422 14.6856 8.27191 14.6894C8.34961 14.6932 8.35729 14.6797 8.42551 14.703C8.49374 14.7263 8.57502 14.6991 8.61188 14.8136C8.64491 14.804 8.7226 14.7942 8.70315 14.6835C8.74155 14.6545 8.77508 14.635 8.85675 14.5205C8.8762 14.4914 8.9091 14.4584 8.93444 14.4156C9.00241 14.4156 9.08395 14.402 9.19262 14.4972C9.15959 14.5204 9.14014 14.5356 9.13054 14.5592C9.15896 14.5874 9.18491 14.6179 9.20811 14.6505C9.23729 14.6889 9.25675 14.736 9.29361 14.7457C9.37515 14.769 9.50916 14.736 9.65867 14.7457C9.80241 14.7555 9.92273 14.8078 9.97521 14.8408C9.99467 14.8312 9.99467 14.8273 10.0432 14.837C10.0917 14.8467 10.1286 14.8506 10.0762 14.7885C10.1053 14.802 10.1383 14.8312 10.1675 14.8021C10.1966 14.7729 10.2198 14.7302 10.3014 14.7205C10.3829 14.7108 10.4121 14.7244 10.4451 14.639C10.4878 14.5341 10.3403 14.5341 10.3403 14.5341C10.3403 14.5341 10.4082 14.4719 10.484 14.3904C10.5753 14.305 10.6801 14.1943 10.7053 14.0584C10.7481 13.8079 10.5035 13.775 10.5035 13.775L9.31703 14.14L7.86654 14.0681L6.62967 14.6837L6.62891 14.6835Z" fill="#927D49"></path><path fill-rule="evenodd" clip-rule="evenodd" d="M5.56326 11.2563C5.56326 11.2563 5.52486 11.3048 5.50118 11.4194C5.4775 11.534 5.48761 11.5204 5.46815 11.6019C5.4487 11.6835 5.20972 12.4951 5.29932 12.7689C5.38892 13.0427 5.54406 13.1437 5.64108 13.365C5.66054 13.4135 5.67948 13.4427 5.68959 13.4854C5.72262 13.6291 5.69356 13.7398 5.73235 13.8835C5.74591 13.932 5.78099 13.9884 5.83334 14.0466C5.94854 14.1669 6.13631 14.2815 6.21734 14.363C6.33177 14.4835 6.49497 14.7282 6.70271 14.7514C6.81343 14.7649 6.97075 14.7183 7.10079 14.6408C7.21599 14.5688 7.28716 14.468 7.40799 14.4104C7.49337 14.3676 7.58463 14.3521 7.66617 14.3327C7.83513 14.2996 7.9886 14.2943 8.07987 14.3132C8.21964 14.3424 8.54975 14.4434 8.73267 14.4434C8.87559 14.4411 9.01772 14.4215 9.15596 14.3851C9.43359 14.3036 9.76947 14.1637 9.99091 14.1016C10.121 14.0632 10.2258 14.0531 10.3327 14.0298C10.5152 13.9871 10.6685 13.9288 10.756 13.8181C10.6977 13.7501 10.6259 13.6453 10.2374 13.6491C9.79673 13.6589 9.28793 13.9035 9.03743 13.9424C8.78694 13.9813 8.67827 14.0142 8.39859 13.9132C8.12441 13.8112 8.11532 13.7437 8.11532 13.7437C8.11532 13.7437 7.82745 13.5424 7.707 13.0291C7.58655 12.5158 7.707 12.1418 8.01971 11.7864C8.10124 11.6951 8.08179 11.6136 8.08179 11.6136C8.08179 11.6136 8.28761 11.3359 8.23129 11.076C8.16921 10.8177 7.77113 10.8701 7.77113 10.8701L5.56339 11.2563H5.56326Z" fill="#6E6342"></path><path fill-rule="evenodd" clip-rule="evenodd" d="M5.89514 12.1204C5.87803 12.1526 5.86997 12.1889 5.87185 12.2253C5.87569 12.2776 5.8913 12.3456 6.04849 12.4991C6.1825 12.633 6.15332 12.7825 6.15332 12.7825C6.15332 12.7825 6.22078 12.796 6.40382 12.7104C6.54756 12.6424 6.59582 12.7629 6.59582 12.7629C6.63766 12.7409 6.68301 12.7265 6.72983 12.7201C6.77225 12.7162 6.81331 12.7031 6.85015 12.6817C6.85015 12.6817 7.01911 12.8545 7.1667 12.9361C7.30071 13.008 7.37841 13.0565 7.44446 13.008C7.50654 12.9652 7.50654 12.8778 7.50257 12.839C7.48717 12.8032 7.46766 12.7694 7.44446 12.738C7.4017 12.676 7.33374 12.604 7.32926 12.546C7.31953 12.4122 7.43025 12.2528 7.40682 12.214C7.3834 12.1752 7.29623 12.1655 7.08068 12.2432C6.85745 12.3169 5.89425 12.1208 5.89425 12.1208L5.89514 12.1204Z" fill="#39331F"></path><path fill-rule="evenodd" clip-rule="evenodd" d="M6.40379 12.9884C6.40379 12.9884 6.29319 12.8836 6.33198 12.3748C6.37893 12.3741 6.42581 12.3787 6.47175 12.3884C6.47175 12.3884 6.53204 12.7826 6.40379 12.9884Z" fill="#292311"></path><path fill-rule="evenodd" clip-rule="evenodd" d="M5.61577 10.868C5.6312 10.8565 5.64552 10.8437 5.65852 10.8296C5.62012 10.9014 5.44284 11.1887 5.58659 11.6412C5.73033 12.0916 6.09142 12.4275 6.53609 12.4431C6.98076 12.4588 7.21449 12.2412 7.48175 11.915C7.58659 11.785 7.70703 11.6218 7.81379 11.5112C7.97302 11.3382 8.09731 11.2897 8.09731 11.1228C8.09731 10.7811 7.74774 10.6276 7.23318 10.4742C6.71862 10.3209 6.25449 10.3398 6.01372 10.4448C5.77884 10.5592 5.67785 10.6797 5.61564 10.8681L5.61577 10.868Z" fill="#252211"></path><path fill-rule="evenodd" clip-rule="evenodd" d="M7.26796 13.1418L7.30636 13.1223C7.30636 13.1223 7.31596 12.9687 7.37817 12.9728C7.44025 12.9825 7.46943 13.0642 7.46355 13.0932C7.45971 13.1223 7.44422 13.1709 7.38201 13.1651C7.30047 13.167 7.26758 13.1418 7.26758 13.1418H7.26796Z" fill="#3F3824"></path><path fill-rule="evenodd" clip-rule="evenodd" d="M7.09521 12.4893C7.09521 12.4893 7.13361 12.4758 7.18059 12.5224C7.21899 12.5224 7.38641 12.5029 7.43889 12.5359C7.49137 12.569 7.50686 12.598 7.50686 12.598C7.50686 12.598 7.31077 12.6408 7.20389 12.598C7.09521 12.5612 7.09521 12.4893 7.09521 12.4893Z" fill="#2D2815"></path><path fill-rule="evenodd" clip-rule="evenodd" d="M7.95927 12.5184C7.95927 12.5087 7.85444 12.4369 7.74372 12.4134C7.72427 12.4096 7.7203 12.4232 7.70532 12.4232C7.69559 12.4193 7.69175 12.3901 7.69175 12.3901L7.62878 12.4233C7.62878 12.4233 7.61905 12.4369 7.65207 12.4617C7.68113 12.485 7.72977 12.5044 7.74334 12.5432C7.75691 12.582 7.75691 12.5956 7.76279 12.6015C7.76663 12.6053 7.8346 12.6015 7.86763 12.582C7.90065 12.5626 7.96286 12.5308 7.95889 12.518L7.95927 12.5184Z" fill="#82764F"></path><path fill-rule="evenodd" clip-rule="evenodd" d="M6.97852 12.9126C6.97852 12.9126 6.99784 12.7788 7.12802 12.7729C7.26191 12.7631 7.28725 12.8932 7.28725 12.8932L7.20956 12.9709C7.20956 12.969 7.15132 12.8874 6.97916 12.9126H6.97852Z" fill="#2D2816"></path><path fill-rule="evenodd" clip-rule="evenodd" d="M7.82325 12.3359C7.82325 12.3359 7.75132 12.4136 7.59221 12.4369C7.57865 12.4174 7.54946 12.3786 7.59221 12.3165C7.63497 12.2545 7.68348 12.235 7.73199 12.2543C7.75339 12.2578 7.77336 12.2673 7.78953 12.2818C7.8057 12.2962 7.8174 12.315 7.82325 12.3359Z" fill="#574F35"></path><path fill-rule="evenodd" clip-rule="evenodd" d="M8.11639 12.4311C8.12036 12.4116 8.10679 12.4078 8.11639 12.3981C8.12599 12.3884 8.1786 12.369 8.18833 12.3786C8.19217 12.3826 8.18833 12.3981 8.18833 12.417C8.18833 12.436 8.18833 12.4554 8.1786 12.4694C8.16503 12.4888 8.12625 12.4986 8.10679 12.4928C8.08734 12.487 8.0835 12.4598 8.0835 12.4544C8.0931 12.4506 8.11639 12.4408 8.11639 12.4311ZM8.44791 12.2214C8.44791 12.2117 8.48094 12.1923 8.50039 12.1923C8.52945 12.1923 8.52945 12.2156 8.53342 12.2214C8.54302 12.2253 8.54302 12.2175 8.55274 12.235C8.56247 12.2525 8.57617 12.2835 8.56631 12.303C8.55646 12.3224 8.5178 12.3359 8.5082 12.332C8.49463 12.3223 8.45188 12.235 8.44791 12.2214Z" fill="#82764F"></path><path fill-rule="evenodd" clip-rule="evenodd" d="M7.78076 12.4758C7.78076 12.4758 7.82351 12.4854 7.88175 12.534C7.8623 12.5476 7.83311 12.5631 7.83311 12.5631C7.83311 12.5631 7.82927 12.5184 7.78076 12.4756V12.4758Z" fill="#6E6342"></path><path fill-rule="evenodd" clip-rule="evenodd" d="M7.68562 12.0485C7.67589 12.0389 7.71467 12.0156 7.73797 12.0195C7.76127 12.0233 7.77099 12.0389 7.79621 12.0428C7.82143 12.0466 7.82539 12.033 7.83461 12.0233C7.84383 12.0136 7.87736 12.0195 7.88312 12.0233C7.88671 12.0276 7.88996 12.0321 7.89285 12.0369C7.89326 12.0295 7.89518 12.0223 7.89851 12.0156C7.90183 12.009 7.90649 12.0032 7.91218 11.9985C7.91963 11.993 7.92822 11.9893 7.9373 11.9876C7.94639 11.9859 7.95574 11.9863 7.96466 11.9887C7.9685 12.0023 7.98795 12.0508 7.98411 12.0605C7.98027 12.0703 7.92203 12.084 7.91218 12.0741C7.92191 12.0975 7.96466 12.146 7.97042 12.1556C7.97618 12.1652 7.92767 12.1887 7.90834 12.1848C7.8812 12.1829 7.71416 12.0858 7.68511 12.0489L7.68562 12.0485ZM7.93995 11.7262C7.93636 11.7164 7.92948 11.7082 7.9205 11.7029C7.90693 11.6991 7.86226 11.7029 7.86226 11.7262C7.86226 11.7495 7.90066 11.8798 7.94379 11.9476C7.99243 12.0156 8.02533 12.0718 8.05835 12.0874C8.06872 12.0921 8.08049 12.0928 8.0913 12.0892C8.10211 12.0855 8.11114 12.078 8.11659 12.068C8.12043 12.0582 8.13016 11.9864 8.12632 11.8175C8.12248 11.6485 8.11659 11.4854 8.10687 11.4757C8.09714 11.466 8.05835 11.4661 8.04478 11.4854C8.03122 11.5048 7.94379 11.6972 7.93982 11.7262H7.93995Z" fill="#585136"></path><path fill-rule="evenodd" clip-rule="evenodd" d="M7.76701 12.7204C7.76701 12.7204 7.69904 12.6776 7.63299 12.7068C7.57091 12.736 7.57475 12.8506 7.57475 12.8506C7.58872 12.856 7.60381 12.858 7.61871 12.8563C7.63361 12.8546 7.64788 12.8493 7.66026 12.8408C7.70301 12.8118 7.75728 12.7633 7.76701 12.7205V12.7204Z" fill="#574F35"></path><path fill-rule="evenodd" clip-rule="evenodd" d="M7.89533 12.8739C7.89149 12.8355 7.85693 12.8355 7.85693 12.8156C7.85931 12.8061 7.86481 12.7977 7.87254 12.7917C7.88027 12.7857 7.88978 12.7825 7.89956 12.7826C7.91901 12.7826 7.93796 12.8059 7.96177 12.821C7.98506 12.8346 8.02001 12.8594 8.02385 12.889C8.02769 12.9185 7.98545 12.9996 7.93847 12.9996C7.89149 12.9996 7.90545 12.9121 7.89572 12.8733L7.89533 12.8739ZM8.27012 12.8214C8.27012 12.8214 8.19242 12.8447 8.19818 12.8214C8.20394 12.7981 8.22161 12.7923 8.24682 12.7923C8.25963 12.7789 8.27687 12.7706 8.29533 12.7689C8.3059 12.7684 8.31627 12.7718 8.32439 12.7786C8.32439 12.7786 8.37687 12.7553 8.39236 12.7689C8.40785 12.7825 8.39633 12.7825 8.40593 12.7981C8.41815 12.8154 8.42617 12.8354 8.42935 12.8563C8.42935 12.8718 8.37111 12.9048 8.32439 12.8991C8.27012 12.8874 8.27972 12.8311 8.27012 12.8214ZM8.72247 12.734C8.72247 12.734 8.74577 12.7475 8.72644 12.7631C8.71287 12.7767 8.6449 12.8015 8.58653 12.8059C8.52829 12.8059 8.47594 12.8155 8.47594 12.7962C8.47594 12.7768 8.52445 12.7379 8.55351 12.7282C8.55934 12.7209 8.56674 12.715 8.57516 12.711C8.58358 12.7069 8.59281 12.7049 8.60215 12.7049C8.62545 12.7049 8.71658 12.6952 8.74193 12.6913C8.76522 12.6874 8.78468 12.7009 8.77098 12.7204C8.76522 12.734 8.72247 12.734 8.72247 12.734ZM8.85649 12.1344C8.85649 12.1344 8.8273 12.1965 8.79441 12.1965C8.76138 12.1926 8.76138 12.1829 8.76138 12.1732C8.76138 12.1596 8.79441 12.1247 8.79044 12.1149C8.78084 12.1149 8.75741 12.1149 8.76138 12.0916C8.76138 12.0722 8.79441 12.0489 8.82346 12.0532C8.84542 12.0352 8.87275 12.025 8.90116 12.0242C8.93418 12.0242 8.96324 12.0338 8.96324 12.0532C8.96324 12.0727 8.92484 12.1153 8.91076 12.1252C8.89527 12.1407 8.87581 12.1508 8.85649 12.1348V12.1344ZM8.41373 13.2819C8.41373 13.2819 8.37533 13.2859 8.37533 13.3052C8.37533 13.3149 8.38493 13.3149 8.39863 13.3092C8.40652 13.3087 8.41433 13.3074 8.42193 13.3052C8.42577 13.3092 8.42577 13.3285 8.45495 13.3285C8.47891 13.3253 8.50201 13.3174 8.52292 13.3052C8.54621 13.2956 8.56567 13.2858 8.56567 13.2668C8.55594 13.2338 8.53649 13.2182 8.50743 13.2182C8.49254 13.2172 8.47769 13.2206 8.46468 13.2279C8.46468 13.2279 8.45495 13.2084 8.42193 13.2279C8.3889 13.2474 8.39274 13.2474 8.40247 13.2571C8.41988 13.2726 8.41412 13.2827 8.41412 13.2827L8.41373 13.2819ZM8.19434 13.4839C8.19434 13.4742 8.24285 13.4547 8.25642 13.4606C8.26999 13.4644 8.30877 13.5382 8.30877 13.546C8.30877 13.5557 8.26026 13.579 8.24081 13.579C8.22135 13.579 8.18845 13.546 8.18845 13.5406C8.18845 13.5368 8.21175 13.531 8.21175 13.527C8.21751 13.5174 8.19434 13.494 8.19434 13.4843V13.4839ZM8.04074 13.2004C8.05047 13.1965 8.05047 13.1868 8.06404 13.1771C8.06829 13.1743 8.07312 13.1724 8.07818 13.1718C8.08324 13.1711 8.08839 13.1716 8.09322 13.1732C8.09665 13.1671 8.10138 13.1619 8.1071 13.1578C8.11281 13.1538 8.11935 13.151 8.12625 13.1498C8.14954 13.146 8.169 13.1498 8.16465 13.1596C8.16465 13.1887 8.1841 13.2081 8.1841 13.2314C8.1841 13.2547 8.17053 13.2838 8.12202 13.3033C8.07351 13.3169 8.00746 13.3169 7.99773 13.313C7.98801 13.3092 7.97828 13.2703 7.98801 13.2508C7.99773 13.2314 8.02487 13.2101 8.04049 13.2004H8.04074Z" fill="#82764F"></path><path fill-rule="evenodd" clip-rule="evenodd" d="M8.10236 13.2136C8.10236 13.2136 8.06934 13.233 8.06934 13.2428C8.06641 13.2521 8.06511 13.262 8.0655 13.2718C8.0655 13.2776 8.10825 13.268 8.11401 13.2621C8.11593 13.2582 8.10236 13.2237 8.10236 13.2136Z" fill="#6E6342"></path><path fill-rule="evenodd" clip-rule="evenodd" d="M7.81373 13.1223C7.83306 13.1263 7.86609 13.1223 7.8913 13.132C7.91076 13.1418 7.92433 13.1612 7.90487 13.1845C7.88541 13.2078 7.86647 13.2428 7.82333 13.2369C7.77482 13.233 7.72823 13.2078 7.72823 13.1884C7.72742 13.176 7.72906 13.1637 7.73305 13.152C7.73705 13.1404 7.74333 13.1296 7.75153 13.1204C7.77098 13.1049 7.78058 13.1146 7.81361 13.1223H7.81373Z" fill="#585136"></path><path fill-rule="evenodd" clip-rule="evenodd" d="M7.79039 13.1418C7.79039 13.1418 7.72831 13.1903 7.71269 13.2137C7.69324 13.237 7.59814 13.3573 7.56908 13.3825C7.57873 13.3655 7.58973 13.3493 7.60198 13.334C7.56357 13.3586 7.53479 13.3956 7.52044 13.4388C7.49714 13.5108 7.65062 13.5496 7.75148 13.5788C7.85234 13.6079 7.89138 13.6172 7.89138 13.6172C7.85425 13.5613 7.82237 13.5022 7.79615 13.4405C7.75775 13.3492 7.73791 13.3395 7.76313 13.2968C7.78258 13.254 7.81177 13.225 7.81177 13.1919C7.80012 13.1612 7.79039 13.1418 7.79039 13.1418Z" fill="#574F35"></path><path fill-rule="evenodd" clip-rule="evenodd" d="M5.57692 13.2952C5.59105 13.2978 5.60554 13.2978 5.61967 13.2952C5.64872 13.2913 5.9517 13.18 6.26824 13.2C6.50521 13.2143 6.74009 13.2529 6.96917 13.3152C7.36725 13.42 7.86236 13.6278 8.18274 13.7463C8.26812 13.7792 8.3517 13.8376 8.41314 13.8607C8.65788 13.956 8.66748 13.956 8.81122 13.9812C8.98018 14.0045 9.15298 13.9482 9.33359 13.9094C9.5549 13.8607 9.93352 13.8374 10.2656 13.7889C10.3729 13.774 10.4788 13.75 10.5821 13.7171C10.5821 13.7171 10.318 13.9812 9.68495 14.0763C9.42905 14.1151 9.16901 14.1184 8.91221 14.086C8.71023 14.0666 8.57634 14.0374 8.47535 14.0083C8.36079 13.9753 8.12578 13.8879 7.8365 13.8163C7.63452 13.7638 7.40924 13.7251 7.15106 13.6765C6.51413 13.5599 5.82293 13.426 5.57666 13.296L5.57692 13.2952Z" fill="#252211"></path><path fill-rule="evenodd" clip-rule="evenodd" d="M4.86184 12.0952C4.70824 12.2253 4.5453 12.3496 4.3862 12.4699L3.90658 12.8384C3.74351 12.9587 3.58428 13.083 3.42108 13.2035C3.25788 13.3239 3.09493 13.4383 2.92188 13.5491C3.07548 13.419 3.23842 13.2986 3.40149 13.1802C3.56456 13.0618 3.73365 12.9457 3.89096 12.8256L4.37058 12.4566C4.53557 12.3363 4.6948 12.212 4.86184 12.0955V12.0952ZM4.01333 13.4545C4.01333 13.4545 4.18613 13.3107 4.40168 13.1089C4.66959 12.8585 4.99778 12.538 5.10261 12.4799L4.0132 13.4546L4.01333 13.4545Z" fill="#CFB66C"></path><path fill-rule="evenodd" clip-rule="evenodd" d="M4.01367 13.4543C4.09918 13.369 4.19044 13.2855 4.2817 13.2038L4.42148 13.0835C4.46423 13.0451 4.51287 13.002 4.5555 12.9592C4.64087 12.8739 4.72446 12.7825 4.80983 12.6952C4.85215 12.6513 4.89689 12.6098 4.94385 12.5709C4.96732 12.5501 4.9934 12.5325 5.02142 12.5184C5.04484 12.5048 5.07006 12.48 5.10295 12.4756C5.08362 12.5048 5.06033 12.5184 5.04087 12.5436C5.01758 12.5631 4.99812 12.5864 4.97879 12.6057C4.93604 12.6484 4.88753 12.6872 4.84478 12.7261C4.75351 12.8038 4.65841 12.8797 4.56714 12.961C4.47588 13.0423 4.3905 13.13 4.29911 13.2115C4.20017 13.2951 4.1089 13.3766 4.01367 13.4547V13.4543ZM5.17489 12.6776C5.17489 12.6776 4.54193 13.2972 4.41175 13.398L5.17489 12.6776Z" fill="#CFB66C"></path><path fill-rule="evenodd" clip-rule="evenodd" d="M5.17476 12.6776C5.11782 12.7435 5.05677 12.8058 4.99197 12.864L4.79997 13.0465C4.73789 13.1086 4.67953 13.1708 4.61361 13.2329C4.54564 13.2911 4.48356 13.3481 4.41162 13.4019L4.59799 13.2193C4.6602 13.1572 4.72816 13.1049 4.79421 13.0427L4.98058 12.8602C5.04458 12.7962 5.10679 12.734 5.17476 12.6776ZM5.20381 13.0135C5.14547 13.1763 5.07672 13.3353 4.99799 13.4893C4.83492 13.8156 4.59031 14.2232 4.48343 14.4311L5.20381 13.0135Z" fill="#CFB66C"></path><path fill-rule="evenodd" clip-rule="evenodd" d="M5.20382 13.0136C5.20382 13.0854 5.18436 13.1476 5.16106 13.2097C5.13836 13.2719 5.11246 13.3328 5.0835 13.3923C5.05431 13.4505 5.02129 13.5127 4.98826 13.569C4.95524 13.6253 4.91646 13.6835 4.88727 13.7418L4.69118 14.0874C4.62321 14.2026 4.55716 14.3185 4.48535 14.4292C4.53386 14.3049 4.59991 14.1884 4.66212 14.0739C4.73009 13.9587 4.79217 13.8435 4.85412 13.7243C4.88437 13.6649 4.91158 13.604 4.93566 13.5419C4.96471 13.4797 4.99377 13.4214 5.01719 13.3651C5.04625 13.303 5.06954 13.2447 5.09873 13.1885C5.13162 13.1282 5.15889 13.07 5.20356 13.0136H5.20382Z" fill="#CFB66C"></path><path fill-rule="evenodd" clip-rule="evenodd" d="M5.89534 14.6058C5.89534 14.6058 5.70334 14.8602 5.72254 15.1825C5.77489 15.0136 5.84094 14.7553 5.89534 14.6058ZM6.07787 14.8608C6.07787 14.8608 6.0099 15.552 5.95358 15.8918C6.0332 15.499 6.04869 15.532 6.07787 14.8608ZM7.34968 15.9327C7.34968 15.9327 7.06232 16.7775 7.05643 17.0122C7.11864 16.7708 7.23896 16.2776 7.34968 15.932V15.9327Z" fill="#DEC270"></path><path fill-rule="evenodd" clip-rule="evenodd" d="M8.02148 14.5536C8.02148 14.5536 8.48753 15.3225 8.8371 15.9788C8.74251 15.6485 8.52491 15.0428 8.02148 14.5536Z" fill="#CBAF59"></path><path fill-rule="evenodd" clip-rule="evenodd" d="M9.27393 15.6855C9.52981 16.1378 9.76056 16.6039 9.96513 17.0816C9.92634 16.7515 9.82138 16.1865 9.27393 15.6855Z" fill="#E3C677"></path><path fill-rule="evenodd" clip-rule="evenodd" d="M12.9552 16.8192C13.0328 16.7707 13.1863 16.5065 13.3203 16.4406C13.4542 16.3726 13.5552 16.359 13.6756 16.225C13.7959 16.0851 13.8292 15.9997 14.093 15.8892C14.4621 15.7298 14.2082 15.524 14.2082 15.524C14.2489 15.484 14.2923 15.4471 14.3383 15.4134C14.4335 15.3416 14.5441 15.2541 14.5345 15.1007C14.5209 14.8425 14.4724 14.4677 14.2607 14.2502C14.4665 14.2075 14.8607 14.1784 15.1055 14.1164C15.3889 14.0444 15.5191 13.9434 15.5191 13.9434C15.5191 13.9434 15.356 13.6658 15.6201 13.3862C15.8841 13.1067 16.0997 12.9396 16.2589 12.6269C16.0764 12.6036 15.7981 12.5066 15.088 12.7764C15.1263 12.7945 15.1633 12.8152 15.1987 12.8385C15.1987 12.8385 14.7618 12.959 14.6026 13.093C14.3248 13.3279 14.2899 13.5201 13.989 13.6639C13.688 13.8076 13.3851 13.7687 13.1347 13.8852C12.8843 14.0017 12.8473 14.1007 12.7559 14.1435C12.7754 14.1668 12.7521 14.2056 12.789 14.2386C12.7657 14.2716 12.6297 14.4929 12.4919 14.4929C12.5055 14.5454 12.6219 14.5842 12.6219 14.5842C12.6219 14.5842 12.5366 14.6464 12.3191 14.6619C12.4297 14.7771 12.5346 14.9027 12.8239 15.0852C12.8006 15.1337 12.7035 15.2056 12.7424 15.2969C12.7851 15.3882 12.896 15.5124 13.3385 15.6134C13.1132 15.623 12.8493 15.6755 12.4937 15.627C12.1383 15.5843 12.0801 15.559 11.8607 15.6134C11.884 15.6367 11.9461 15.6367 12.0005 15.6988C11.9423 15.7027 11.5772 15.6561 11.4529 15.8193C11.3229 15.9881 11.2665 16.2659 11.2763 16.4522C11.2083 16.4852 11.1423 16.5435 11.1753 16.6639C11.2083 16.7844 11.3811 16.8232 11.4918 16.8988C11.6024 16.9804 11.6121 17.0094 11.7171 16.9901C11.8277 16.9668 11.9908 16.8562 12.086 16.8562C12.1812 16.8562 12.2491 16.928 12.2491 16.928C12.2491 16.928 12.5074 16.8037 12.5326 16.827C12.5559 16.8503 12.5364 16.9998 12.5616 17.0231C12.5872 17.0406 12.8782 16.8678 12.9559 16.8192H12.9552Z" fill="#ECD592"></path><path fill-rule="evenodd" clip-rule="evenodd" d="M18.6001 9.04857C17.3866 5.91462 14.3865 5.33401 14.3865 5.33401H5.82728L5.8603 8.52621H7.56488V15.6544H5.82715V18.8408H14.1496C16.1553 18.8408 17.7631 16.8252 17.7631 16.8252C20.3379 13.1709 18.6 9.04857 18.6 9.04857H18.6001ZM14.1943 14.6776C14.1943 14.6776 13.5415 15.6195 12.8312 15.6195H11.4104L11.3767 8.53401H13.2001C13.2001 8.53401 14.0449 8.71065 14.6351 10.3825C14.6351 10.3825 15.4175 12.7761 14.1943 14.6776Z" fill="white" fill-opacity="0.8"></path></g><defs><clipPath id="clip0_2302_43187"><rect width="24" height="24" fill="white"></rect></clipPath></defs></svg>