<svg width="18" height="18" viewBox="0 0 18 18" fill="none" xmlns="http://www.w3.org/2000/svg">
<path d="M16.8719 8.38804L1.74689 0.825538C1.62834 0.766252 1.49519 0.742498 1.36345 0.757135C1.23172 0.771772 1.10703 0.824176 1.00439 0.908038C0.906366 0.990189 0.833204 1.09805 0.793125 1.21951C0.753046 1.34096 0.747639 1.47118 0.777512 1.59554L2.81251 8.99991L0.750012 16.3837C0.72198 16.4875 0.718708 16.5965 0.740459 16.7018C0.762209 16.8072 0.808376 16.906 0.875246 16.9902C0.942117 17.0745 1.02782 17.1419 1.12548 17.187C1.22313 17.2321 1.33001 17.2536 1.43751 17.2499C1.54513 17.2493 1.6511 17.2234 1.74689 17.1743L16.8719 9.61179C16.9845 9.55409 17.079 9.46644 17.145 9.35848C17.211 9.25052 17.2459 9.12644 17.2459 8.99991C17.2459 8.87338 17.211 8.7493 17.145 8.64134C17.079 8.53338 16.9845 8.44573 16.8719 8.38804ZM2.50314 15.263L4.02251 9.68741H10.375V8.31241H4.02251L2.50314 2.73679L15.0225 8.99991L2.50314 15.263Z" fill="white"/>
</svg>
