<svg width="181" height="55" viewBox="0 0 181 55" fill="none" xmlns="http://www.w3.org/2000/svg">
<g clip-path="url(#clip0_55_482)">
<path d="M118.799 29.415H112.42V0.860438L118.799 0V29.415Z" fill="#D33737"/>
<path d="M123.106 4.66246C123.106 3.70197 123.441 2.88821 124.112 2.22122C124.783 1.5542 125.601 1.2207 126.567 1.2207C127.546 1.2207 128.365 1.5542 129.022 2.22122C129.693 2.87488 130.028 3.68863 130.028 4.66246C130.028 5.62295 129.693 6.44336 129.022 7.12371C128.351 7.80406 127.533 8.14423 126.567 8.14423C125.628 8.14423 124.816 7.80406 124.132 7.12371C123.448 6.43002 123.106 5.6096 123.106 4.66246ZM129.787 29.415H123.408V11.3859L129.787 10.5254V29.415Z" fill="#D33737"/>
<path d="M140.895 34.6296L131.799 11.3857H138.763L141.76 18.2693L144.9 11.3857H150.715L141.479 34.6296H140.895Z" fill="#D33737"/>
<path d="M157.739 18.7095L165.607 18.4695V18.1894C165.607 17.2421 165.272 16.4684 164.6 15.8681C163.93 15.2544 163.085 14.9477 162.065 14.9477C160.925 14.9477 159.972 15.2811 159.207 15.9481C158.444 16.6018 157.953 17.5224 157.739 18.7095ZM169.772 22.9718L169.068 28.5145C167.834 29.1015 166.62 29.5351 165.426 29.8153C164.231 30.0954 163.025 30.2355 161.803 30.2355C158.785 30.2355 156.35 29.375 154.499 27.6542C152.647 25.9199 151.722 23.6655 151.722 20.8907C151.722 17.9959 152.734 15.5546 154.76 13.567C156.786 11.5659 159.248 10.5654 162.146 10.5654C164.628 10.5654 166.66 11.2991 168.244 12.7666C169.84 14.2206 170.638 16.1083 170.638 18.4295C170.638 18.7896 170.612 19.3632 170.557 20.1503L170.538 20.2704L169.974 21.0908L157.598 21.4309C157.692 22.6449 158.201 23.632 159.128 24.3924C160.053 25.1395 161.22 25.513 162.628 25.513C163.621 25.513 164.721 25.2996 165.929 24.8727C167.149 24.4459 168.431 23.8122 169.772 22.9718Z" fill="#D33737"/>
<path d="M112.797 47.3669V43.3818C113.992 44.196 114.921 44.7477 115.583 45.0369C116.246 45.3154 116.859 45.4547 117.421 45.4547C117.913 45.4547 118.31 45.3422 118.611 45.1173C118.913 44.8816 119.063 44.5762 119.063 44.2013C119.063 43.8799 118.958 43.6121 118.747 43.3979C118.536 43.1836 118.174 42.9801 117.662 42.7872L115.915 42.1285C114.77 41.7106 113.901 41.1268 113.309 40.377C112.716 39.6163 112.42 38.7219 112.42 37.6934C112.42 36.2366 112.897 35.0689 113.851 34.1904C114.805 33.3012 116.076 32.8567 117.662 32.8567C118.395 32.8567 119.169 32.9692 119.982 33.1941C120.806 33.4085 121.72 33.7459 122.724 34.2065L122.136 37.7256C121.534 37.1793 120.876 36.7507 120.163 36.4401C119.45 36.1295 118.782 35.9741 118.159 35.9741C117.697 35.9741 117.321 36.0919 117.03 36.3276C116.738 36.5526 116.593 36.8419 116.593 37.1954C116.593 37.4953 116.673 37.7363 116.834 37.9183C117.004 38.0898 117.376 38.2772 117.949 38.4809L119.575 39.1074C120.851 39.5895 121.76 40.1733 122.302 40.8591C122.854 41.5446 123.131 42.4391 123.131 43.5425C123.131 45.1387 122.638 46.4028 121.654 47.3348C120.67 48.256 119.329 48.7166 117.632 48.7166C116.809 48.7166 115.995 48.6041 115.192 48.3792C114.398 48.165 113.6 47.8276 112.797 47.3669Z" fill="white"/>
<path d="M125.933 54.9996V33.5477H130.648C131.12 33.355 131.587 33.2157 132.049 33.13C132.511 33.0336 132.983 32.9854 133.465 32.9854C135.423 32.9854 137.035 33.7085 138.3 35.1547C139.576 36.6009 140.213 38.4649 140.213 40.7467C140.213 43.1142 139.525 45.0316 138.15 46.4993C136.784 47.9562 134.996 48.6847 132.787 48.6847C132.495 48.6847 132.184 48.6632 131.853 48.6203C131.521 48.5882 131.11 48.5347 130.617 48.4597V54.1481L125.933 54.9996ZM130.648 44.6995C130.979 44.7959 131.265 44.8656 131.506 44.9085C131.747 44.9513 131.968 44.9727 132.169 44.9727C133.083 44.9727 133.846 44.571 134.459 43.7676C135.071 42.9641 135.378 41.9464 135.378 40.7145C135.378 39.5683 135.096 38.6202 134.534 37.8703C133.982 37.1204 133.294 36.7454 132.47 36.7454C132.219 36.7454 131.953 36.7776 131.672 36.842C131.391 36.8954 131.049 36.9918 130.648 37.1311V44.6995Z" fill="white"/>
<path d="M146.932 40.7786C146.932 42.0106 147.178 43.0069 147.67 43.7675C148.172 44.5174 148.809 44.8923 149.583 44.8923C150.356 44.8923 150.99 44.512 151.481 43.7514C151.984 42.9909 152.235 41.9999 152.235 40.7786C152.235 39.5682 151.984 38.5826 151.481 37.822C150.99 37.0507 150.356 36.665 149.583 36.665C148.809 36.665 148.172 37.0454 147.67 37.8059C147.178 38.5665 146.932 39.5575 146.932 40.7786ZM142.111 40.7786C142.111 38.4755 142.814 36.5794 144.22 35.0902C145.636 33.6013 147.424 32.8567 149.583 32.8567C151.752 32.8567 153.546 33.6013 154.961 35.0902C156.377 36.5794 157.085 38.4755 157.085 40.7786C157.085 43.0819 156.377 44.9834 154.961 46.4831C153.546 47.9722 151.752 48.7166 149.583 48.7166C147.434 48.7166 145.652 47.9722 144.235 46.4831C142.82 44.9834 142.111 43.0819 142.111 40.7786Z" fill="white"/>
<path d="M164.602 48.0256H159.857V33.5476H164.271L164.36 36.0865C164.903 35.0689 165.535 34.3297 166.259 33.8691C166.992 33.4084 167.901 33.178 168.985 33.178H169.363V38.5772H168.338C166.861 38.5772 165.867 38.7592 165.356 39.1235C164.853 39.477 164.602 40.3394 164.602 41.7105V48.0256Z" fill="white"/>
<path d="M172.647 43.1567V37.3559H170.673V33.5475H172.647V29.209L177.466 28.5181V33.5475H180.675V37.3559H177.466V43.5102C177.466 44.8172 177.632 45.7652 177.964 46.3544C178.296 46.9329 178.918 47.4686 179.832 47.9614L174.469 48.3469C173.796 48.0042 173.324 47.4954 173.052 46.8204C172.782 46.1348 172.647 44.9136 172.647 43.1567Z" fill="white"/>
<path d="M5.34422 33.8891C7.24849 35.3939 9.00941 36.512 10.627 37.2435C12.2651 37.975 13.7906 38.3408 15.2035 38.3408C17.0462 38.3408 18.5205 37.8496 19.6262 36.8673C20.7523 35.885 21.3155 34.5997 21.3155 33.0113C21.3155 31.193 20.5476 29.824 19.0119 28.9044C17.4762 27.9848 15.2035 27.525 12.1934 27.525H10.9956V19.719C14.3946 19.5727 16.9234 19.0084 18.582 18.0261C20.2405 17.0229 21.0698 15.5704 21.0698 13.6685C21.0698 12.3518 20.6398 11.2755 19.7797 10.4395C18.9403 9.60347 17.855 9.18547 16.5241 9.18547C15.3365 9.18547 14.0567 9.57212 12.6848 10.3454C11.313 11.1187 9.80798 12.31 8.1699 13.9193L2.51855 7.83743C4.60709 5.20406 6.83896 3.23947 9.21418 1.94369C11.6099 0.647894 14.1796 0 16.9234 0C20.9162 0 24.223 1.26444 26.8439 3.79332C29.4853 6.30129 30.8061 9.44672 30.8061 13.2296C30.8061 15.2778 30.3453 17.1379 29.4239 18.8099C28.523 20.4819 27.2228 21.8508 25.5233 22.9167C27.5094 23.9198 29.0452 25.3828 30.1303 27.3056C31.2156 29.2284 31.7582 31.4647 31.7582 34.0145C31.7582 38.3199 30.2736 41.8205 27.3047 44.5166C24.3562 47.1918 20.4965 48.5294 15.7255 48.5294C12.9613 48.5294 10.2073 48.0069 7.46348 46.9619C4.71971 45.896 2.23188 44.3912 0 42.4475L5.34422 33.8891Z" fill="#D33737"/>
<path d="M82.4976 37.7138C80.8595 37.0659 79.0883 36.094 77.184 34.7982L72.3927 43.0118C74.7269 44.8719 77.1431 46.2513 79.6412 47.15C82.1393 48.0696 84.7806 48.5294 87.5653 48.5294C92.6434 48.5294 96.7897 47.0037 100.005 43.9523C103.24 40.9009 104.857 37.0136 104.857 32.2902C104.857 27.6713 103.393 23.8884 100.465 20.9417C97.5372 17.9739 93.7798 16.49 89.1932 16.49C88.6608 16.49 87.7496 16.5631 86.4597 16.7094C86.214 16.7303 86.04 16.7408 85.9375 16.7408V10.7216H101.018L103.598 1.53613H77.6754V25.4873C78.8016 25.0693 79.9791 24.7662 81.2075 24.5781C82.4361 24.3691 83.7363 24.2646 85.1082 24.2646C88.0567 24.2646 90.4012 24.9543 92.1417 26.3337C93.9026 27.6922 94.7831 29.5105 94.7831 31.7886C94.7831 33.795 94.0768 35.4461 92.6639 36.7419C91.251 38.0168 89.4286 38.6543 87.1969 38.6543C85.7021 38.6543 84.1356 38.3408 82.4976 37.7138Z" fill="#D33737"/>
<path d="M66.9474 1.61768H54.8485C50.1069 6.58838 41.5647 17.1028 38.3618 26.0785C37.5513 28.0079 37.1033 30.128 37.1033 32.3529C37.1033 41.287 44.3259 48.5294 53.2352 48.5294C62.1447 48.5294 69.3671 41.287 69.3671 32.3529C69.3671 24.0977 63.2005 17.2867 55.2343 16.2995L66.9474 1.61768Z" fill="#D33737"/>
<path d="M60.8569 31.1624C61.7711 31.6916 61.7711 33.0147 60.8569 33.5439L50.4518 39.5679C49.5377 40.0972 48.395 39.4356 48.395 38.3772V26.3293C48.395 25.2708 49.5377 24.6092 50.4518 25.1384L60.8569 31.1624Z" fill="white"/>
</g>
<defs>
<clipPath id="clip0_55_482">
<rect width="181" height="55" fill="white"/>
</clipPath>
</defs>
</svg>
