<svg width="132" height="40" viewBox="0 0 132 40" fill="none" xmlns="http://www.w3.org/2000/svg">
<g clip-path="url(#clip0_58_2)">
<path d="M86.6381 21.3927H81.9858V0.625773L86.6381 0V21.3927Z" fill="white"/>
<path d="M89.7787 3.39082C89.7787 2.69228 90.0233 2.10046 90.5125 1.61537C91.0017 1.13027 91.5985 0.887726 92.303 0.887726C93.0172 0.887726 93.614 1.13027 94.0934 1.61537C94.5826 2.09076 94.8272 2.68258 94.8272 3.39082C94.8272 4.08936 94.5826 4.68602 94.0934 5.18082C93.6042 5.67562 93.0074 5.92302 92.303 5.92302C91.6181 5.92302 91.0262 5.67562 90.5272 5.18082C90.0282 4.67632 89.7787 4.07965 89.7787 3.39082ZM94.6511 21.3927H89.9989V8.28058L94.6511 7.65481V21.3927Z" fill="white"/>
<path d="M102.752 25.1852L96.1187 8.28058H101.197L103.383 13.2868L105.673 8.28058H109.914L103.178 25.1852H102.752Z" fill="white"/>
<path d="M115.036 13.6069L120.774 13.4323V13.2286C120.774 12.5397 120.53 11.977 120.04 11.5404C119.551 11.0941 118.935 10.871 118.191 10.871C117.36 10.871 116.665 11.1135 116.107 11.5986C115.55 12.074 115.192 12.7435 115.036 13.6069ZM123.812 16.7067L123.298 20.7378C122.398 21.1647 121.513 21.48 120.642 21.6838C119.771 21.8875 118.891 21.9894 118 21.9894C115.799 21.9894 114.023 21.3636 112.673 20.1121C111.323 18.8508 110.648 17.2112 110.648 15.1932C110.648 13.0879 111.386 11.3124 112.864 9.86683C114.341 8.41155 116.137 7.6839 118.25 7.6839C120.06 7.6839 121.542 8.21751 122.697 9.28472C123.861 10.3422 124.443 11.7151 124.443 13.4032C124.443 13.6651 124.424 14.0823 124.384 14.6547L124.37 14.7421L123.959 15.3387L114.933 15.5861C115.002 16.469 115.373 17.1869 116.049 17.7399C116.724 18.2832 117.575 18.5549 118.602 18.5549C119.326 18.5549 120.128 18.3997 121.009 18.0892C121.899 17.7788 122.834 17.3179 123.812 16.7067Z" fill="white"/>
<path d="M82.2605 34.4487V31.5504C83.132 32.1426 83.8095 32.5438 84.2929 32.7541C84.7763 32.9567 85.223 33.058 85.6332 33.058C85.9921 33.058 86.2814 32.9762 86.5011 32.8126C86.7208 32.6412 86.8307 32.4191 86.8307 32.1464C86.8307 31.9127 86.7538 31.7179 86.6 31.5621C86.4461 31.4063 86.1825 31.2583 85.809 31.118L84.5346 30.6389C83.6997 30.335 83.0661 29.9104 82.634 29.3651C82.2019 28.8119 81.9858 28.1614 81.9858 27.4134C81.9858 26.3539 82.3337 25.5047 83.0295 24.8658C83.7253 24.2191 84.6518 23.8958 85.809 23.8958C86.3436 23.8958 86.9076 23.9776 87.5008 24.1412C88.1014 24.2971 88.7679 24.5425 89.5002 24.8775L89.0718 27.4368C88.6324 27.0395 88.1526 26.7278 87.6326 26.5019C87.1126 26.276 86.6256 26.163 86.1715 26.163C85.8346 26.163 85.5599 26.2487 85.3475 26.4201C85.1352 26.5837 85.029 26.7941 85.029 27.0512C85.029 27.2693 85.0875 27.4446 85.2047 27.577C85.3292 27.7017 85.6002 27.838 86.0177 27.9861L87.2042 28.4418C88.1343 28.7924 88.7971 29.217 89.1926 29.7157C89.5955 30.2143 89.7969 30.8648 89.7969 31.6673C89.7969 32.8282 89.438 33.7475 88.7202 34.4253C88.0025 35.0953 87.0247 35.4303 85.787 35.4303C85.1864 35.4303 84.5932 35.3485 84.0073 35.1849C83.4287 35.0291 82.8464 34.7837 82.2605 34.4487Z" fill="white"/>
<path d="M91.8403 39.9997V24.3983H95.2789C95.6231 24.2581 95.9637 24.1568 96.3006 24.0945C96.6375 24.0244 96.9817 23.9893 97.3333 23.9893C98.7614 23.9893 99.9369 24.5152 100.86 25.567C101.79 26.6188 102.255 27.9744 102.255 29.6339C102.255 31.3557 101.753 32.7502 100.75 33.8176C99.7538 34.8772 98.4502 35.407 96.8389 35.407C96.6265 35.407 96.3994 35.3914 96.1578 35.3602C95.9161 35.3368 95.6158 35.2979 95.2569 35.2434V39.3804L91.8403 39.9997ZM95.2789 32.5087C95.5206 32.5788 95.7293 32.6295 95.9051 32.6607C96.0809 32.6918 96.242 32.7074 96.3885 32.7074C97.0549 32.7074 97.6116 32.4152 98.0583 31.8309C98.5051 31.2466 98.7285 30.5064 98.7285 29.6105C98.7285 28.7769 98.5234 28.0874 98.1133 27.542C97.7104 26.9966 97.2087 26.7239 96.6082 26.7239C96.4251 26.7239 96.231 26.7473 96.0259 26.7941C95.8208 26.833 95.5718 26.9031 95.2789 27.0044V32.5087Z" fill="white"/>
<path d="M107.155 29.6572C107.155 30.5532 107.334 31.2778 107.693 31.8309C108.059 32.3763 108.524 32.649 109.088 32.649C109.652 32.649 110.114 32.3724 110.472 31.8192C110.839 31.2661 111.022 30.5454 111.022 29.6572C111.022 28.7769 110.839 28.0601 110.472 27.5069C110.114 26.946 109.652 26.6655 109.088 26.6655C108.524 26.6655 108.059 26.9421 107.693 27.4952C107.334 28.0484 107.155 28.7691 107.155 29.6572ZM103.639 29.6572C103.639 27.9822 104.152 26.6032 105.177 25.5202C106.21 24.4373 107.514 23.8958 109.088 23.8958C110.67 23.8958 111.978 24.4373 113.01 25.5202C114.043 26.6032 114.559 27.9822 114.559 29.6572C114.559 31.3323 114.043 32.7152 113.01 33.8059C111.978 34.8889 110.67 35.4303 109.088 35.4303C107.521 35.4303 106.221 34.8889 105.188 33.8059C104.156 32.7152 103.639 31.3323 103.639 29.6572Z" fill="white"/>
<path d="M120.041 34.9278H116.581V24.3983H119.8L119.865 26.2448C120.261 25.5047 120.722 24.9671 121.25 24.6321C121.784 24.2971 122.447 24.1295 123.238 24.1295H123.513V28.0562H122.766C121.689 28.0562 120.964 28.1886 120.591 28.4535C120.224 28.7106 120.041 29.3378 120.041 30.335V34.9278Z" fill="white"/>
<path d="M125.908 31.3868V27.168H124.469V24.3983H125.908V21.243L129.423 20.7405V24.3983H131.763V27.168H129.423V31.6439C129.423 32.5944 129.544 33.2839 129.786 33.7124C130.028 34.1331 130.482 34.5227 131.148 34.8811L127.237 35.1615C126.746 34.9122 126.402 34.5422 126.204 34.0513C126.007 33.5527 125.908 32.6645 125.908 31.3868Z" fill="white"/>
<path d="M3.89744 24.6466C5.28619 25.741 6.5704 26.5542 7.75009 27.0862C8.94471 27.6182 10.0572 27.8842 11.0876 27.8842C12.4315 27.8842 13.5067 27.527 14.313 26.8126C15.1343 26.0982 15.545 25.1634 15.545 24.0082C15.545 22.6858 14.985 21.6902 13.865 21.0214C12.7451 20.3526 11.0876 20.0182 8.89244 20.0182H8.01888V14.3411C10.4977 14.2347 12.3419 13.8243 13.5515 13.1099C14.761 12.3803 15.3658 11.3239 15.3658 9.94071C15.3658 8.98312 15.0522 8.20033 14.425 7.59233C13.8128 6.98434 13.0213 6.68034 12.0507 6.68034C11.1846 6.68034 10.2513 6.96154 9.25083 7.52393C8.25034 8.08633 7.15278 8.95272 5.95816 10.1231L1.83673 5.69995C3.35987 3.78477 4.98753 2.35598 6.71973 1.41359C8.46686 0.471196 10.3409 0 12.3419 0C15.2538 0 17.6654 0.919592 19.5768 2.75878C21.5031 4.58276 22.4663 6.87034 22.4663 9.62152C22.4663 11.1111 22.1303 12.4639 21.4583 13.6799C20.8013 14.8959 19.8531 15.8915 18.6137 16.6667C20.0621 17.3962 21.1821 18.4602 21.9735 19.8586C22.765 21.257 23.1607 22.8834 23.1607 24.7378C23.1607 27.869 22.078 30.4149 19.9128 32.3757C17.7625 34.3213 14.9477 35.2941 11.4683 35.2941C9.45242 35.2941 7.44397 34.9141 5.44298 34.1541C3.442 33.3789 1.62767 32.2845 0 30.8709L3.89744 24.6466Z" fill="white"/>
<path d="M60.164 27.4282C58.9694 26.957 57.6777 26.2502 56.2889 25.3078L52.7947 31.2813C54.497 32.6341 56.2591 33.6373 58.0809 34.2909C59.9027 34.9597 61.829 35.2941 63.8598 35.2941C67.5632 35.2941 70.587 34.1845 72.9315 31.9653C75.2908 29.7461 76.4705 26.919 76.4705 23.4838C76.4705 20.1246 75.4028 17.3734 73.2675 15.2303C71.1321 13.0719 68.3919 11.9927 65.047 11.9927C64.6587 11.9927 63.9942 12.0459 63.0535 12.1523C62.8743 12.1675 62.7474 12.1751 62.6727 12.1751V7.79753H73.6707L75.5522 1.11719H56.6473V18.5362C57.4686 18.2322 58.3273 18.0118 59.2232 17.875C60.1192 17.723 61.0674 17.647 62.0679 17.647C64.2182 17.647 65.928 18.1486 67.1973 19.1518C68.4815 20.1398 69.1236 21.4622 69.1236 23.119C69.1236 24.5782 68.6085 25.779 67.5781 26.7214C66.5477 27.6486 65.2187 28.1122 63.5911 28.1122C62.501 28.1122 61.3586 27.8842 60.164 27.4282Z" fill="white"/>
<path d="M48.8235 1.17651H40C36.5421 4.79157 30.3124 12.4384 27.9766 18.9662C27.3855 20.3694 27.0588 21.9113 27.0588 23.5294C27.0588 30.0269 32.3261 35.2941 38.8235 35.2941C45.321 35.2941 50.5882 30.0269 50.5882 23.5294C50.5882 17.5256 46.091 12.5722 40.2814 11.8542L48.8235 1.17651Z" fill="white"/>
<path d="M44.3818 22.6635C45.0485 23.0484 45.0485 24.0106 44.3818 24.3955L36.7936 28.7766C36.1269 29.1615 35.2936 28.6804 35.2936 27.9106V19.1485C35.2936 18.3787 36.1269 17.8975 36.7936 18.2824L44.3818 22.6635Z" fill="#D33737"/>
</g>
<defs>
<clipPath id="clip0_58_2">
<rect width="132" height="40" fill="white"/>
</clipPath>
</defs>
</svg>
