<svg width="25" height="24" viewBox="0 0 25 24" fill="none" xmlns="http://www.w3.org/2000/svg"><title>tether (trc20)</title><g clip-path="url(#clip0_2302_40454)"><path d="M12.3335 0C18.9606 0 24.3335 5.37288 24.3335 12C24.3335 18.6271 18.9604 24 12.3335 24C5.70662 24 0.333496 18.6286 0.333496 12C0.333496 5.37144 5.70566 0 12.3335 0Z" fill="#53AE94"></path><path d="M13.8146 10.4011V8.616H17.8968V5.89608H6.78094V8.616H10.8636V10.3997C7.54558 10.5521 5.05078 11.2092 5.05078 11.9964C5.05078 12.7836 7.54678 13.4407 10.8636 13.5941V19.3121H13.8156V13.5936C17.1276 13.4407 19.6173 12.7841 19.6173 11.9976C19.6173 11.2111 17.1276 10.5545 13.8156 10.4016M13.8156 13.1093V13.1078C13.7323 13.1131 13.3044 13.1388 12.3516 13.1388C11.5898 13.1388 11.0539 13.1172 10.865 13.1074V13.1098C7.93366 12.9799 5.74558 12.4694 5.74558 11.8586C5.74558 11.2478 7.9339 10.7381 10.865 10.608V12.6012C11.057 12.6144 11.6061 12.6468 12.3641 12.6468C13.2744 12.6468 13.7321 12.6089 13.8161 12.6012V10.608C16.7417 10.7383 18.9247 11.2493 18.9247 11.8579C18.9247 12.4666 16.7407 12.9778 13.8161 13.1081" fill="white"></path></g><defs><clipPath id="clip0_2302_40454"><rect width="24" height="24" fill="white" transform="translate(0.333496)"></rect></clipPath></defs></svg>