<svg width="21" height="18" viewBox="0 0 21 18" fill="none" xmlns="http://www.w3.org/2000/svg">
<path d="M20.5242 2.74992C19.7862 3.08534 18.9908 3.30575 18.1667 3.41117C19.01 2.90325 19.6617 2.09825 19.9683 1.13034C19.1729 1.6095 18.2912 1.94492 17.3617 2.13659C16.6046 1.31242 15.5408 0.833252 14.3333 0.833252C12.0812 0.833252 10.2412 2.67325 10.2412 4.9445C10.2412 5.27034 10.2796 5.58659 10.3467 5.88367C6.935 5.71117 3.89708 4.07242 1.875 1.59034C1.52041 2.19409 1.31916 2.90325 1.31916 3.65075C1.31916 5.07867 2.03791 6.34367 3.14958 7.06242C2.46916 7.06242 1.83666 6.87075 1.28083 6.58325V6.612C1.28083 8.60533 2.69916 10.2728 4.5775 10.6466C3.97444 10.8116 3.34134 10.8346 2.72791 10.7137C2.9882 11.5306 3.49797 12.2455 4.18555 12.7577C4.87314 13.27 5.70397 13.5539 6.56125 13.5695C5.10806 14.7199 3.30674 15.3418 1.45333 15.3328C1.1275 15.3328 0.801663 15.3137 0.47583 15.2753C2.29666 16.4445 4.4625 17.1249 6.78166 17.1249C14.3333 17.1249 18.4829 10.8574 18.4829 5.42367C18.4829 5.24159 18.4829 5.06908 18.4733 4.887C19.2783 4.312 19.9683 3.58367 20.5242 2.74992Z" fill="#D33737"/>
</svg>
